M48
;DRILL file {KiCad (5.0.0-rc2-dev-252-gb5f1fdd98)} date 04/01/18 12:07:11
;FORMAT={2:4/ absolute / inch / suppress leading zeros}
FMAT,2
INCH,TZ
T1C0.0100
T2C0.0217
T3C0.0394
T4C0.0453
%
G90
G05
M72
T1
X50532Y-40550
X50600Y-40100
X50600Y-44350
X50900Y-45150
X50946Y-38350
X51000Y-40100
X51082Y-40553
X51350Y-45400
X51396Y-38333
X51583Y-40897
X51650Y-41850
X51854Y-41017
X51950Y-34550
X52250Y-41850
X52393Y-37400
X52493Y-38800
X52500Y-41550
X52579Y-42750
X52900Y-35550
X52904Y-35250
X53050Y-40850
X53100Y-37400
X53264Y-38350
X53650Y-44891
X53750Y-41200
X53950Y-44700
X54050Y-39350
X54056Y-38915
X54117Y-42846
X54150Y-34150
X54250Y-40262
X54346Y-36233
X54400Y-34829
X54400Y-44250
X54800Y-37625
X54800Y-38400
X54800Y-41400
T2
X51516Y-34131
X53484Y-34131
T3
X49500Y-33000
X49500Y-34000
X49500Y-35000
X49500Y-36000
X49500Y-37000
X49500Y-38000
X49500Y-39000
X49500Y-40000
X49500Y-41000
X49500Y-42000
X49500Y-43000
X49500Y-44000
X49500Y-45000
X49500Y-46000
X55500Y-33000
X55500Y-34000
X55500Y-35000
X55500Y-36000
X55500Y-37000
X55500Y-38000
X55500Y-39000
X55500Y-40000
X55500Y-41000
X55500Y-42000
X55500Y-43000
X55500Y-44000
X55500Y-45000
X55500Y-46000
T4
X51122Y-33069
X53878Y-33069
T0
M30
