G04 #@! TF.GenerationSoftware,KiCad,Pcbnew,(5.0.0-rc2-dev-252-gb5f1fdd98)*
G04 #@! TF.CreationDate,2018-04-01T12:07:08-07:00*
G04 #@! TF.ProjectId,smolfpga,736D6F6C667067612E6B696361645F70,rev?*
G04 #@! TF.SameCoordinates,Original*
G04 #@! TF.FileFunction,Copper,L2,Bot,Signal*
G04 #@! TF.FilePolarity,Positive*
%FSLAX46Y46*%
G04 Gerber Fmt 4.6, Leading zero omitted, Abs format (unit mm)*
G04 Created by KiCad (PCBNEW (5.0.0-rc2-dev-252-gb5f1fdd98)) date 04/01/18 12:07:08*
%MOMM*%
%LPD*%
G01*
G04 APERTURE LIST*
%ADD10O,1.700000X1.700000*%
%ADD11C,1.700000*%
%ADD12C,0.950000*%
%ADD13C,1.550000*%
%ADD14C,0.508000*%
%ADD15C,0.127000*%
%ADD16C,0.381000*%
%ADD17C,0.254000*%
%ADD18C,0.203200*%
%ADD19C,0.200000*%
G04 APERTURE END LIST*
D10*
X140970000Y-116840000D03*
X140970000Y-114300000D03*
X140970000Y-111760000D03*
X140970000Y-109220000D03*
X140970000Y-106680000D03*
X140970000Y-104140000D03*
X140970000Y-101600000D03*
X140970000Y-99060000D03*
X140970000Y-96520000D03*
X140970000Y-93980000D03*
X140970000Y-91440000D03*
X140970000Y-88900000D03*
X140970000Y-86360000D03*
D11*
X140970000Y-83820000D03*
X125730000Y-83820000D03*
D10*
X125730000Y-86360000D03*
X125730000Y-88900000D03*
X125730000Y-91440000D03*
X125730000Y-93980000D03*
X125730000Y-96520000D03*
X125730000Y-99060000D03*
X125730000Y-101600000D03*
X125730000Y-104140000D03*
X125730000Y-106680000D03*
X125730000Y-109220000D03*
X125730000Y-111760000D03*
X125730000Y-114300000D03*
X125730000Y-116840000D03*
D12*
X135850000Y-86694000D03*
X130850000Y-86694000D03*
D13*
X136850000Y-83994000D03*
X129850000Y-83994000D03*
D14*
X128524000Y-101854000D03*
X129540000Y-101854000D03*
X133350000Y-105537000D03*
X131953000Y-87757000D03*
X133331077Y-98552000D03*
X128524000Y-112649000D03*
X135289614Y-97408614D03*
X134366000Y-90297000D03*
X134747000Y-103759000D03*
X137795000Y-102266000D03*
X137456000Y-108828000D03*
X133551000Y-108585000D03*
X137302454Y-98844400D03*
X131022000Y-103877200D03*
X136271000Y-114022000D03*
X130429000Y-115316000D03*
X138038000Y-92033000D03*
X138176000Y-88466000D03*
X130545000Y-97367000D03*
X129402000Y-97409000D03*
X131710000Y-104182000D03*
X129286000Y-114681000D03*
X138176000Y-112395000D03*
X137033000Y-113538000D03*
X139192000Y-97536000D03*
X139192000Y-95567480D03*
X128350989Y-102997000D03*
X129748009Y-103005240D03*
X133077067Y-94996000D03*
X134874000Y-94996000D03*
X137287000Y-99949000D03*
X136525000Y-104648000D03*
X137541000Y-86741000D03*
X139192000Y-105156000D03*
X134375220Y-89535000D03*
X131191000Y-106299000D03*
X132715000Y-106299000D03*
D15*
X129540000Y-101854000D02*
X128524000Y-101854000D01*
D16*
X139192000Y-95567480D02*
X139192000Y-97536000D01*
X137033000Y-113538000D02*
X138176000Y-112395000D01*
D15*
X128359229Y-103005240D02*
X128350989Y-102997000D01*
D16*
X129748009Y-103005240D02*
X128359229Y-103005240D01*
X134874000Y-94996000D02*
X133077067Y-94996000D01*
D15*
X137287000Y-99949000D02*
X137540999Y-99695001D01*
X137540999Y-99695001D02*
X137690861Y-99695001D01*
X137690861Y-99695001D02*
X139700000Y-97685862D01*
X139700000Y-97685862D02*
X139700000Y-90170000D01*
X139700000Y-90170000D02*
X140970000Y-88900000D01*
X137287000Y-99949000D02*
X137287000Y-103886000D01*
X137287000Y-103886000D02*
X136525000Y-104648000D01*
D17*
X137541000Y-86741000D02*
X140462000Y-83820000D01*
X140462000Y-83820000D02*
X140970000Y-83820000D01*
D15*
X131191000Y-106299000D02*
X132715000Y-106299000D01*
X139192000Y-105156000D02*
X139954000Y-105156000D01*
X139954000Y-105156000D02*
X140970000Y-104140000D01*
X140462000Y-103632000D02*
X140970000Y-104140000D01*
D18*
X134375220Y-89421067D02*
X126251067Y-89421067D01*
X126251067Y-89421067D02*
X125730000Y-88900000D01*
D19*
G36*
X129273053Y-83062077D02*
X129209803Y-83104339D01*
X129131546Y-83268475D01*
X129850000Y-83986929D01*
X130568454Y-83268475D01*
X130490197Y-83104339D01*
X130138179Y-82944000D01*
X136588673Y-82944000D01*
X136273053Y-83062077D01*
X136209803Y-83104339D01*
X136131546Y-83268475D01*
X136850000Y-83986929D01*
X137568454Y-83268475D01*
X137490197Y-83104339D01*
X137138179Y-82944000D01*
X140219654Y-82944000D01*
X139995077Y-83168577D01*
X139820000Y-83591251D01*
X139820000Y-83858131D01*
X137491132Y-86187000D01*
X137430802Y-86187000D01*
X137227184Y-86271341D01*
X137071341Y-86427184D01*
X136987000Y-86630802D01*
X136987000Y-86851198D01*
X137071341Y-87054816D01*
X137227184Y-87210659D01*
X137430802Y-87295000D01*
X137651198Y-87295000D01*
X137854816Y-87210659D01*
X138010659Y-87054816D01*
X138095000Y-86851198D01*
X138095000Y-86790868D01*
X140204761Y-84681107D01*
X140318577Y-84794923D01*
X140741251Y-84970000D01*
X141198749Y-84970000D01*
X141621423Y-84794923D01*
X141750000Y-84666346D01*
X141750000Y-85498087D01*
X141418707Y-85276724D01*
X141083261Y-85210000D01*
X140856739Y-85210000D01*
X140521293Y-85276724D01*
X140140897Y-85530897D01*
X139886724Y-85911293D01*
X139797471Y-86360000D01*
X139886724Y-86808707D01*
X140140897Y-87189103D01*
X140521293Y-87443276D01*
X140856739Y-87510000D01*
X141083261Y-87510000D01*
X141418707Y-87443276D01*
X141750000Y-87221913D01*
X141750000Y-88038087D01*
X141418707Y-87816724D01*
X141083261Y-87750000D01*
X140856739Y-87750000D01*
X140521293Y-87816724D01*
X140140897Y-88070897D01*
X139886724Y-88451293D01*
X139797471Y-88900000D01*
X139886724Y-89348707D01*
X139934991Y-89420943D01*
X139468285Y-89887650D01*
X139437932Y-89907931D01*
X139375631Y-90001172D01*
X139357591Y-90028170D01*
X139329379Y-90170000D01*
X139336501Y-90205804D01*
X139336500Y-95027688D01*
X139302198Y-95013480D01*
X139081802Y-95013480D01*
X138878184Y-95097821D01*
X138722341Y-95253664D01*
X138638000Y-95457282D01*
X138638000Y-95677678D01*
X138701500Y-95830982D01*
X138701501Y-97272497D01*
X138638000Y-97425802D01*
X138638000Y-97646198D01*
X138722341Y-97849816D01*
X138872160Y-97999635D01*
X137546352Y-99325445D01*
X137540999Y-99324380D01*
X137505200Y-99331501D01*
X137505199Y-99331501D01*
X137399168Y-99352592D01*
X137335700Y-99395000D01*
X137176802Y-99395000D01*
X136973184Y-99479341D01*
X136817341Y-99635184D01*
X136733000Y-99838802D01*
X136733000Y-100059198D01*
X136817341Y-100262816D01*
X136923500Y-100368975D01*
X136923501Y-103735433D01*
X136564935Y-104094000D01*
X136414802Y-104094000D01*
X136211184Y-104178341D01*
X136055341Y-104334184D01*
X135971000Y-104537802D01*
X135971000Y-104758198D01*
X136055341Y-104961816D01*
X136211184Y-105117659D01*
X136414802Y-105202000D01*
X136635198Y-105202000D01*
X136838816Y-105117659D01*
X136994659Y-104961816D01*
X137079000Y-104758198D01*
X137079000Y-104608065D01*
X137518715Y-104168350D01*
X137549069Y-104148069D01*
X137629409Y-104027831D01*
X137650500Y-103921800D01*
X137650500Y-103921799D01*
X137657621Y-103886000D01*
X137650500Y-103850201D01*
X137650500Y-100368975D01*
X137756659Y-100262816D01*
X137841000Y-100059198D01*
X137841000Y-100031859D01*
X137952930Y-99957070D01*
X137973213Y-99926714D01*
X139931721Y-97968208D01*
X139962068Y-97947931D01*
X139982346Y-97917583D01*
X139982348Y-97917581D01*
X140011797Y-97873506D01*
X140042409Y-97827693D01*
X140063500Y-97721662D01*
X140063500Y-97721661D01*
X140070621Y-97685862D01*
X140063500Y-97650063D01*
X140063500Y-97233270D01*
X140140897Y-97349103D01*
X140521293Y-97603276D01*
X140856739Y-97670000D01*
X141083261Y-97670000D01*
X141418707Y-97603276D01*
X141750000Y-97381913D01*
X141750000Y-98198087D01*
X141418707Y-97976724D01*
X141083261Y-97910000D01*
X140856739Y-97910000D01*
X140521293Y-97976724D01*
X140140897Y-98230897D01*
X139886724Y-98611293D01*
X139797471Y-99060000D01*
X139886724Y-99508707D01*
X140140897Y-99889103D01*
X140521293Y-100143276D01*
X140856739Y-100210000D01*
X141083261Y-100210000D01*
X141418707Y-100143276D01*
X141750000Y-99921913D01*
X141750000Y-100738087D01*
X141418707Y-100516724D01*
X141083261Y-100450000D01*
X140856739Y-100450000D01*
X140521293Y-100516724D01*
X140140897Y-100770897D01*
X139886724Y-101151293D01*
X139797471Y-101600000D01*
X139886724Y-102048707D01*
X140140897Y-102429103D01*
X140521293Y-102683276D01*
X140856739Y-102750000D01*
X141083261Y-102750000D01*
X141418707Y-102683276D01*
X141750000Y-102461913D01*
X141750000Y-103278087D01*
X141418707Y-103056724D01*
X141083261Y-102990000D01*
X140856739Y-102990000D01*
X140521293Y-103056724D01*
X140140897Y-103310897D01*
X139886724Y-103691293D01*
X139797471Y-104140000D01*
X139886724Y-104588707D01*
X139934991Y-104660944D01*
X139803435Y-104792500D01*
X139611975Y-104792500D01*
X139505816Y-104686341D01*
X139302198Y-104602000D01*
X139081802Y-104602000D01*
X138878184Y-104686341D01*
X138722341Y-104842184D01*
X138638000Y-105045802D01*
X138638000Y-105266198D01*
X138722341Y-105469816D01*
X138878184Y-105625659D01*
X139081802Y-105710000D01*
X139302198Y-105710000D01*
X139505816Y-105625659D01*
X139611975Y-105519500D01*
X139918201Y-105519500D01*
X139954000Y-105526621D01*
X139989799Y-105519500D01*
X139989800Y-105519500D01*
X140095831Y-105498409D01*
X140216069Y-105418069D01*
X140236352Y-105387713D01*
X140449056Y-105175009D01*
X140521293Y-105223276D01*
X140856739Y-105290000D01*
X141083261Y-105290000D01*
X141418707Y-105223276D01*
X141750000Y-105001913D01*
X141750000Y-105818087D01*
X141418707Y-105596724D01*
X141083261Y-105530000D01*
X140856739Y-105530000D01*
X140521293Y-105596724D01*
X140140897Y-105850897D01*
X139886724Y-106231293D01*
X139797471Y-106680000D01*
X139886724Y-107128707D01*
X140140897Y-107509103D01*
X140521293Y-107763276D01*
X140856739Y-107830000D01*
X141083261Y-107830000D01*
X141418707Y-107763276D01*
X141750000Y-107541913D01*
X141750000Y-108358087D01*
X141418707Y-108136724D01*
X141083261Y-108070000D01*
X140856739Y-108070000D01*
X140521293Y-108136724D01*
X140140897Y-108390897D01*
X139886724Y-108771293D01*
X139797471Y-109220000D01*
X139886724Y-109668707D01*
X140140897Y-110049103D01*
X140521293Y-110303276D01*
X140856739Y-110370000D01*
X141083261Y-110370000D01*
X141418707Y-110303276D01*
X141750000Y-110081913D01*
X141750000Y-110898087D01*
X141418707Y-110676724D01*
X141083261Y-110610000D01*
X140856739Y-110610000D01*
X140521293Y-110676724D01*
X140140897Y-110930897D01*
X139886724Y-111311293D01*
X139797471Y-111760000D01*
X139886724Y-112208707D01*
X140140897Y-112589103D01*
X140521293Y-112843276D01*
X140856739Y-112910000D01*
X141083261Y-112910000D01*
X141418707Y-112843276D01*
X141750000Y-112621913D01*
X141750000Y-113438087D01*
X141418707Y-113216724D01*
X141083261Y-113150000D01*
X140856739Y-113150000D01*
X140521293Y-113216724D01*
X140140897Y-113470897D01*
X139886724Y-113851293D01*
X139797471Y-114300000D01*
X139886724Y-114748707D01*
X140140897Y-115129103D01*
X140521293Y-115383276D01*
X140856739Y-115450000D01*
X141083261Y-115450000D01*
X141418707Y-115383276D01*
X141750000Y-115161913D01*
X141750000Y-115978087D01*
X141418707Y-115756724D01*
X141083261Y-115690000D01*
X140856739Y-115690000D01*
X140521293Y-115756724D01*
X140140897Y-116010897D01*
X139886724Y-116391293D01*
X139797471Y-116840000D01*
X139886724Y-117288707D01*
X140140897Y-117669103D01*
X140239519Y-117735000D01*
X126460481Y-117735000D01*
X126559103Y-117669103D01*
X126813276Y-117288707D01*
X126902529Y-116840000D01*
X126813276Y-116391293D01*
X126559103Y-116010897D01*
X126178707Y-115756724D01*
X125843261Y-115690000D01*
X125616739Y-115690000D01*
X125281293Y-115756724D01*
X124950000Y-115978087D01*
X124950000Y-115161913D01*
X125281293Y-115383276D01*
X125616739Y-115450000D01*
X125843261Y-115450000D01*
X126178707Y-115383276D01*
X126559103Y-115129103D01*
X126813276Y-114748707D01*
X126902529Y-114300000D01*
X126813276Y-113851293D01*
X126559103Y-113470897D01*
X126494607Y-113427802D01*
X136479000Y-113427802D01*
X136479000Y-113648198D01*
X136563341Y-113851816D01*
X136719184Y-114007659D01*
X136922802Y-114092000D01*
X137143198Y-114092000D01*
X137346816Y-114007659D01*
X137502659Y-113851816D01*
X137566159Y-113698512D01*
X138336513Y-112928159D01*
X138489816Y-112864659D01*
X138645659Y-112708816D01*
X138730000Y-112505198D01*
X138730000Y-112284802D01*
X138645659Y-112081184D01*
X138489816Y-111925341D01*
X138286198Y-111841000D01*
X138065802Y-111841000D01*
X137862184Y-111925341D01*
X137706341Y-112081184D01*
X137642841Y-112234487D01*
X136872488Y-113004841D01*
X136719184Y-113068341D01*
X136563341Y-113224184D01*
X136479000Y-113427802D01*
X126494607Y-113427802D01*
X126178707Y-113216724D01*
X125843261Y-113150000D01*
X125616739Y-113150000D01*
X125281293Y-113216724D01*
X124950000Y-113438087D01*
X124950000Y-112621913D01*
X125281293Y-112843276D01*
X125616739Y-112910000D01*
X125843261Y-112910000D01*
X126178707Y-112843276D01*
X126559103Y-112589103D01*
X126813276Y-112208707D01*
X126902529Y-111760000D01*
X126813276Y-111311293D01*
X126559103Y-110930897D01*
X126178707Y-110676724D01*
X125843261Y-110610000D01*
X125616739Y-110610000D01*
X125281293Y-110676724D01*
X124950000Y-110898087D01*
X124950000Y-110081913D01*
X125281293Y-110303276D01*
X125616739Y-110370000D01*
X125843261Y-110370000D01*
X126178707Y-110303276D01*
X126559103Y-110049103D01*
X126813276Y-109668707D01*
X126902529Y-109220000D01*
X126813276Y-108771293D01*
X126559103Y-108390897D01*
X126178707Y-108136724D01*
X125843261Y-108070000D01*
X125616739Y-108070000D01*
X125281293Y-108136724D01*
X124950000Y-108358087D01*
X124950000Y-107541913D01*
X125281293Y-107763276D01*
X125616739Y-107830000D01*
X125843261Y-107830000D01*
X126178707Y-107763276D01*
X126559103Y-107509103D01*
X126813276Y-107128707D01*
X126902529Y-106680000D01*
X126813276Y-106231293D01*
X126784885Y-106188802D01*
X130637000Y-106188802D01*
X130637000Y-106409198D01*
X130721341Y-106612816D01*
X130877184Y-106768659D01*
X131080802Y-106853000D01*
X131301198Y-106853000D01*
X131504816Y-106768659D01*
X131610975Y-106662500D01*
X132295025Y-106662500D01*
X132401184Y-106768659D01*
X132604802Y-106853000D01*
X132825198Y-106853000D01*
X133028816Y-106768659D01*
X133184659Y-106612816D01*
X133269000Y-106409198D01*
X133269000Y-106188802D01*
X133184659Y-105985184D01*
X133028816Y-105829341D01*
X132825198Y-105745000D01*
X132604802Y-105745000D01*
X132401184Y-105829341D01*
X132295025Y-105935500D01*
X131610975Y-105935500D01*
X131504816Y-105829341D01*
X131301198Y-105745000D01*
X131080802Y-105745000D01*
X130877184Y-105829341D01*
X130721341Y-105985184D01*
X130637000Y-106188802D01*
X126784885Y-106188802D01*
X126559103Y-105850897D01*
X126178707Y-105596724D01*
X125843261Y-105530000D01*
X125616739Y-105530000D01*
X125281293Y-105596724D01*
X124950000Y-105818087D01*
X124950000Y-105001913D01*
X125281293Y-105223276D01*
X125616739Y-105290000D01*
X125843261Y-105290000D01*
X126178707Y-105223276D01*
X126559103Y-104969103D01*
X126813276Y-104588707D01*
X126902529Y-104140000D01*
X126813276Y-103691293D01*
X126559103Y-103310897D01*
X126178707Y-103056724D01*
X125843261Y-102990000D01*
X125616739Y-102990000D01*
X125281293Y-103056724D01*
X124950000Y-103278087D01*
X124950000Y-102886802D01*
X127796989Y-102886802D01*
X127796989Y-103107198D01*
X127881330Y-103310816D01*
X128037173Y-103466659D01*
X128240791Y-103551000D01*
X128461187Y-103551000D01*
X128594597Y-103495740D01*
X129484508Y-103495740D01*
X129637811Y-103559240D01*
X129858207Y-103559240D01*
X130061825Y-103474899D01*
X130217668Y-103319056D01*
X130302009Y-103115438D01*
X130302009Y-102895042D01*
X130217668Y-102691424D01*
X130061825Y-102535581D01*
X129858207Y-102451240D01*
X129637811Y-102451240D01*
X129484508Y-102514740D01*
X128634383Y-102514740D01*
X128461187Y-102443000D01*
X128240791Y-102443000D01*
X128037173Y-102527341D01*
X127881330Y-102683184D01*
X127796989Y-102886802D01*
X124950000Y-102886802D01*
X124950000Y-102461913D01*
X125281293Y-102683276D01*
X125616739Y-102750000D01*
X125843261Y-102750000D01*
X126178707Y-102683276D01*
X126559103Y-102429103D01*
X126813276Y-102048707D01*
X126873925Y-101743802D01*
X127970000Y-101743802D01*
X127970000Y-101964198D01*
X128054341Y-102167816D01*
X128210184Y-102323659D01*
X128413802Y-102408000D01*
X128634198Y-102408000D01*
X128837816Y-102323659D01*
X128943975Y-102217500D01*
X129120025Y-102217500D01*
X129226184Y-102323659D01*
X129429802Y-102408000D01*
X129650198Y-102408000D01*
X129853816Y-102323659D01*
X130009659Y-102167816D01*
X130094000Y-101964198D01*
X130094000Y-101743802D01*
X130009659Y-101540184D01*
X129853816Y-101384341D01*
X129650198Y-101300000D01*
X129429802Y-101300000D01*
X129226184Y-101384341D01*
X129120025Y-101490500D01*
X128943975Y-101490500D01*
X128837816Y-101384341D01*
X128634198Y-101300000D01*
X128413802Y-101300000D01*
X128210184Y-101384341D01*
X128054341Y-101540184D01*
X127970000Y-101743802D01*
X126873925Y-101743802D01*
X126902529Y-101600000D01*
X126813276Y-101151293D01*
X126559103Y-100770897D01*
X126178707Y-100516724D01*
X125843261Y-100450000D01*
X125616739Y-100450000D01*
X125281293Y-100516724D01*
X124950000Y-100738087D01*
X124950000Y-99921913D01*
X125281293Y-100143276D01*
X125616739Y-100210000D01*
X125843261Y-100210000D01*
X126178707Y-100143276D01*
X126559103Y-99889103D01*
X126813276Y-99508707D01*
X126902529Y-99060000D01*
X126813276Y-98611293D01*
X126559103Y-98230897D01*
X126178707Y-97976724D01*
X125843261Y-97910000D01*
X125616739Y-97910000D01*
X125281293Y-97976724D01*
X124950000Y-98198087D01*
X124950000Y-97381913D01*
X125281293Y-97603276D01*
X125616739Y-97670000D01*
X125843261Y-97670000D01*
X126178707Y-97603276D01*
X126559103Y-97349103D01*
X126813276Y-96968707D01*
X126902529Y-96520000D01*
X126813276Y-96071293D01*
X126559103Y-95690897D01*
X126178707Y-95436724D01*
X125843261Y-95370000D01*
X125616739Y-95370000D01*
X125281293Y-95436724D01*
X124950000Y-95658087D01*
X124950000Y-94841913D01*
X125281293Y-95063276D01*
X125616739Y-95130000D01*
X125843261Y-95130000D01*
X126178707Y-95063276D01*
X126444315Y-94885802D01*
X132523067Y-94885802D01*
X132523067Y-95106198D01*
X132607408Y-95309816D01*
X132763251Y-95465659D01*
X132966869Y-95550000D01*
X133187265Y-95550000D01*
X133340568Y-95486500D01*
X134610499Y-95486500D01*
X134763802Y-95550000D01*
X134984198Y-95550000D01*
X135187816Y-95465659D01*
X135343659Y-95309816D01*
X135428000Y-95106198D01*
X135428000Y-94885802D01*
X135343659Y-94682184D01*
X135187816Y-94526341D01*
X134984198Y-94442000D01*
X134763802Y-94442000D01*
X134610499Y-94505500D01*
X133340568Y-94505500D01*
X133187265Y-94442000D01*
X132966869Y-94442000D01*
X132763251Y-94526341D01*
X132607408Y-94682184D01*
X132523067Y-94885802D01*
X126444315Y-94885802D01*
X126559103Y-94809103D01*
X126813276Y-94428707D01*
X126902529Y-93980000D01*
X126813276Y-93531293D01*
X126559103Y-93150897D01*
X126178707Y-92896724D01*
X125843261Y-92830000D01*
X125616739Y-92830000D01*
X125281293Y-92896724D01*
X124950000Y-93118087D01*
X124950000Y-92301913D01*
X125281293Y-92523276D01*
X125616739Y-92590000D01*
X125843261Y-92590000D01*
X126178707Y-92523276D01*
X126559103Y-92269103D01*
X126813276Y-91888707D01*
X126902529Y-91440000D01*
X126813276Y-90991293D01*
X126559103Y-90610897D01*
X126178707Y-90356724D01*
X125843261Y-90290000D01*
X125616739Y-90290000D01*
X125281293Y-90356724D01*
X124950000Y-90578087D01*
X124950000Y-89761913D01*
X125281293Y-89983276D01*
X125616739Y-90050000D01*
X125843261Y-90050000D01*
X126178707Y-89983276D01*
X126419075Y-89822667D01*
X133894730Y-89822667D01*
X133905561Y-89848816D01*
X134061404Y-90004659D01*
X134265022Y-90089000D01*
X134485418Y-90089000D01*
X134689036Y-90004659D01*
X134844879Y-89848816D01*
X134929220Y-89645198D01*
X134929220Y-89424802D01*
X134844879Y-89221184D01*
X134689036Y-89065341D01*
X134485418Y-88981000D01*
X134265022Y-88981000D01*
X134172154Y-89019467D01*
X126878766Y-89019467D01*
X126902529Y-88900000D01*
X126813276Y-88451293D01*
X126559103Y-88070897D01*
X126178707Y-87816724D01*
X125843261Y-87750000D01*
X125616739Y-87750000D01*
X125281293Y-87816724D01*
X124950000Y-88038087D01*
X124950000Y-87221913D01*
X125281293Y-87443276D01*
X125616739Y-87510000D01*
X125843261Y-87510000D01*
X126178707Y-87443276D01*
X126537954Y-87203234D01*
X130347837Y-87203234D01*
X130389596Y-87336198D01*
X130670401Y-87463503D01*
X130978548Y-87473657D01*
X131267125Y-87365116D01*
X131310404Y-87336198D01*
X131352163Y-87203234D01*
X135347837Y-87203234D01*
X135389596Y-87336198D01*
X135670401Y-87463503D01*
X135978548Y-87473657D01*
X136267125Y-87365116D01*
X136310404Y-87336198D01*
X136352163Y-87203234D01*
X135850000Y-86701071D01*
X135347837Y-87203234D01*
X131352163Y-87203234D01*
X130850000Y-86701071D01*
X130347837Y-87203234D01*
X126537954Y-87203234D01*
X126559103Y-87189103D01*
X126804027Y-86822548D01*
X130070343Y-86822548D01*
X130178884Y-87111125D01*
X130207802Y-87154404D01*
X130340766Y-87196163D01*
X130842929Y-86694000D01*
X130857071Y-86694000D01*
X131359234Y-87196163D01*
X131492198Y-87154404D01*
X131619503Y-86873599D01*
X131621185Y-86822548D01*
X135070343Y-86822548D01*
X135178884Y-87111125D01*
X135207802Y-87154404D01*
X135340766Y-87196163D01*
X135842929Y-86694000D01*
X135857071Y-86694000D01*
X136359234Y-87196163D01*
X136492198Y-87154404D01*
X136619503Y-86873599D01*
X136629657Y-86565452D01*
X136521116Y-86276875D01*
X136492198Y-86233596D01*
X136359234Y-86191837D01*
X135857071Y-86694000D01*
X135842929Y-86694000D01*
X135340766Y-86191837D01*
X135207802Y-86233596D01*
X135080497Y-86514401D01*
X135070343Y-86822548D01*
X131621185Y-86822548D01*
X131629657Y-86565452D01*
X131521116Y-86276875D01*
X131492198Y-86233596D01*
X131359234Y-86191837D01*
X130857071Y-86694000D01*
X130842929Y-86694000D01*
X130340766Y-86191837D01*
X130207802Y-86233596D01*
X130080497Y-86514401D01*
X130070343Y-86822548D01*
X126804027Y-86822548D01*
X126813276Y-86808707D01*
X126902529Y-86360000D01*
X126867673Y-86184766D01*
X130347837Y-86184766D01*
X130850000Y-86686929D01*
X131352163Y-86184766D01*
X135347837Y-86184766D01*
X135850000Y-86686929D01*
X136352163Y-86184766D01*
X136310404Y-86051802D01*
X136029599Y-85924497D01*
X135721452Y-85914343D01*
X135432875Y-86022884D01*
X135389596Y-86051802D01*
X135347837Y-86184766D01*
X131352163Y-86184766D01*
X131310404Y-86051802D01*
X131029599Y-85924497D01*
X130721452Y-85914343D01*
X130432875Y-86022884D01*
X130389596Y-86051802D01*
X130347837Y-86184766D01*
X126867673Y-86184766D01*
X126813276Y-85911293D01*
X126559103Y-85530897D01*
X126178707Y-85276724D01*
X125843261Y-85210000D01*
X125616739Y-85210000D01*
X125281293Y-85276724D01*
X124950000Y-85498087D01*
X124950000Y-84607074D01*
X124957473Y-84599601D01*
X125044856Y-84771527D01*
X125461143Y-84961289D01*
X125918361Y-84977301D01*
X126346903Y-84817125D01*
X126415144Y-84771527D01*
X126441574Y-84719525D01*
X129131546Y-84719525D01*
X129209803Y-84883661D01*
X129598994Y-85060932D01*
X130026398Y-85075773D01*
X130426947Y-84925923D01*
X130490197Y-84883661D01*
X130568454Y-84719525D01*
X136131546Y-84719525D01*
X136209803Y-84883661D01*
X136598994Y-85060932D01*
X137026398Y-85075773D01*
X137426947Y-84925923D01*
X137490197Y-84883661D01*
X137568454Y-84719525D01*
X136850000Y-84001071D01*
X136131546Y-84719525D01*
X130568454Y-84719525D01*
X129850000Y-84001071D01*
X129131546Y-84719525D01*
X126441574Y-84719525D01*
X126502528Y-84599599D01*
X125730000Y-83827071D01*
X125715858Y-83841214D01*
X125708787Y-83834143D01*
X125722929Y-83820000D01*
X125737071Y-83820000D01*
X126509599Y-84592528D01*
X126681527Y-84505144D01*
X126834119Y-84170398D01*
X128768227Y-84170398D01*
X128918077Y-84570947D01*
X128960339Y-84634197D01*
X129124475Y-84712454D01*
X129842929Y-83994000D01*
X129857071Y-83994000D01*
X130575525Y-84712454D01*
X130739661Y-84634197D01*
X130916932Y-84245006D01*
X130919522Y-84170398D01*
X135768227Y-84170398D01*
X135918077Y-84570947D01*
X135960339Y-84634197D01*
X136124475Y-84712454D01*
X136842929Y-83994000D01*
X136857071Y-83994000D01*
X137575525Y-84712454D01*
X137739661Y-84634197D01*
X137916932Y-84245006D01*
X137931773Y-83817602D01*
X137781923Y-83417053D01*
X137739661Y-83353803D01*
X137575525Y-83275546D01*
X136857071Y-83994000D01*
X136842929Y-83994000D01*
X136124475Y-83275546D01*
X135960339Y-83353803D01*
X135783068Y-83742994D01*
X135768227Y-84170398D01*
X130919522Y-84170398D01*
X130931773Y-83817602D01*
X130781923Y-83417053D01*
X130739661Y-83353803D01*
X130575525Y-83275546D01*
X129857071Y-83994000D01*
X129842929Y-83994000D01*
X129124475Y-83275546D01*
X128960339Y-83353803D01*
X128783068Y-83742994D01*
X128768227Y-84170398D01*
X126834119Y-84170398D01*
X126871289Y-84088857D01*
X126887301Y-83631639D01*
X126727125Y-83203097D01*
X126681527Y-83134856D01*
X126509599Y-83047472D01*
X125737071Y-83820000D01*
X125722929Y-83820000D01*
X125708787Y-83805858D01*
X125715858Y-83798787D01*
X125730000Y-83812929D01*
X126502528Y-83040401D01*
X126453531Y-82944000D01*
X129588673Y-82944000D01*
X129273053Y-83062077D01*
X129273053Y-83062077D01*
G37*
X129273053Y-83062077D02*
X129209803Y-83104339D01*
X129131546Y-83268475D01*
X129850000Y-83986929D01*
X130568454Y-83268475D01*
X130490197Y-83104339D01*
X130138179Y-82944000D01*
X136588673Y-82944000D01*
X136273053Y-83062077D01*
X136209803Y-83104339D01*
X136131546Y-83268475D01*
X136850000Y-83986929D01*
X137568454Y-83268475D01*
X137490197Y-83104339D01*
X137138179Y-82944000D01*
X140219654Y-82944000D01*
X139995077Y-83168577D01*
X139820000Y-83591251D01*
X139820000Y-83858131D01*
X137491132Y-86187000D01*
X137430802Y-86187000D01*
X137227184Y-86271341D01*
X137071341Y-86427184D01*
X136987000Y-86630802D01*
X136987000Y-86851198D01*
X137071341Y-87054816D01*
X137227184Y-87210659D01*
X137430802Y-87295000D01*
X137651198Y-87295000D01*
X137854816Y-87210659D01*
X138010659Y-87054816D01*
X138095000Y-86851198D01*
X138095000Y-86790868D01*
X140204761Y-84681107D01*
X140318577Y-84794923D01*
X140741251Y-84970000D01*
X141198749Y-84970000D01*
X141621423Y-84794923D01*
X141750000Y-84666346D01*
X141750000Y-85498087D01*
X141418707Y-85276724D01*
X141083261Y-85210000D01*
X140856739Y-85210000D01*
X140521293Y-85276724D01*
X140140897Y-85530897D01*
X139886724Y-85911293D01*
X139797471Y-86360000D01*
X139886724Y-86808707D01*
X140140897Y-87189103D01*
X140521293Y-87443276D01*
X140856739Y-87510000D01*
X141083261Y-87510000D01*
X141418707Y-87443276D01*
X141750000Y-87221913D01*
X141750000Y-88038087D01*
X141418707Y-87816724D01*
X141083261Y-87750000D01*
X140856739Y-87750000D01*
X140521293Y-87816724D01*
X140140897Y-88070897D01*
X139886724Y-88451293D01*
X139797471Y-88900000D01*
X139886724Y-89348707D01*
X139934991Y-89420943D01*
X139468285Y-89887650D01*
X139437932Y-89907931D01*
X139375631Y-90001172D01*
X139357591Y-90028170D01*
X139329379Y-90170000D01*
X139336501Y-90205804D01*
X139336500Y-95027688D01*
X139302198Y-95013480D01*
X139081802Y-95013480D01*
X138878184Y-95097821D01*
X138722341Y-95253664D01*
X138638000Y-95457282D01*
X138638000Y-95677678D01*
X138701500Y-95830982D01*
X138701501Y-97272497D01*
X138638000Y-97425802D01*
X138638000Y-97646198D01*
X138722341Y-97849816D01*
X138872160Y-97999635D01*
X137546352Y-99325445D01*
X137540999Y-99324380D01*
X137505200Y-99331501D01*
X137505199Y-99331501D01*
X137399168Y-99352592D01*
X137335700Y-99395000D01*
X137176802Y-99395000D01*
X136973184Y-99479341D01*
X136817341Y-99635184D01*
X136733000Y-99838802D01*
X136733000Y-100059198D01*
X136817341Y-100262816D01*
X136923500Y-100368975D01*
X136923501Y-103735433D01*
X136564935Y-104094000D01*
X136414802Y-104094000D01*
X136211184Y-104178341D01*
X136055341Y-104334184D01*
X135971000Y-104537802D01*
X135971000Y-104758198D01*
X136055341Y-104961816D01*
X136211184Y-105117659D01*
X136414802Y-105202000D01*
X136635198Y-105202000D01*
X136838816Y-105117659D01*
X136994659Y-104961816D01*
X137079000Y-104758198D01*
X137079000Y-104608065D01*
X137518715Y-104168350D01*
X137549069Y-104148069D01*
X137629409Y-104027831D01*
X137650500Y-103921800D01*
X137650500Y-103921799D01*
X137657621Y-103886000D01*
X137650500Y-103850201D01*
X137650500Y-100368975D01*
X137756659Y-100262816D01*
X137841000Y-100059198D01*
X137841000Y-100031859D01*
X137952930Y-99957070D01*
X137973213Y-99926714D01*
X139931721Y-97968208D01*
X139962068Y-97947931D01*
X139982346Y-97917583D01*
X139982348Y-97917581D01*
X140011797Y-97873506D01*
X140042409Y-97827693D01*
X140063500Y-97721662D01*
X140063500Y-97721661D01*
X140070621Y-97685862D01*
X140063500Y-97650063D01*
X140063500Y-97233270D01*
X140140897Y-97349103D01*
X140521293Y-97603276D01*
X140856739Y-97670000D01*
X141083261Y-97670000D01*
X141418707Y-97603276D01*
X141750000Y-97381913D01*
X141750000Y-98198087D01*
X141418707Y-97976724D01*
X141083261Y-97910000D01*
X140856739Y-97910000D01*
X140521293Y-97976724D01*
X140140897Y-98230897D01*
X139886724Y-98611293D01*
X139797471Y-99060000D01*
X139886724Y-99508707D01*
X140140897Y-99889103D01*
X140521293Y-100143276D01*
X140856739Y-100210000D01*
X141083261Y-100210000D01*
X141418707Y-100143276D01*
X141750000Y-99921913D01*
X141750000Y-100738087D01*
X141418707Y-100516724D01*
X141083261Y-100450000D01*
X140856739Y-100450000D01*
X140521293Y-100516724D01*
X140140897Y-100770897D01*
X139886724Y-101151293D01*
X139797471Y-101600000D01*
X139886724Y-102048707D01*
X140140897Y-102429103D01*
X140521293Y-102683276D01*
X140856739Y-102750000D01*
X141083261Y-102750000D01*
X141418707Y-102683276D01*
X141750000Y-102461913D01*
X141750000Y-103278087D01*
X141418707Y-103056724D01*
X141083261Y-102990000D01*
X140856739Y-102990000D01*
X140521293Y-103056724D01*
X140140897Y-103310897D01*
X139886724Y-103691293D01*
X139797471Y-104140000D01*
X139886724Y-104588707D01*
X139934991Y-104660944D01*
X139803435Y-104792500D01*
X139611975Y-104792500D01*
X139505816Y-104686341D01*
X139302198Y-104602000D01*
X139081802Y-104602000D01*
X138878184Y-104686341D01*
X138722341Y-104842184D01*
X138638000Y-105045802D01*
X138638000Y-105266198D01*
X138722341Y-105469816D01*
X138878184Y-105625659D01*
X139081802Y-105710000D01*
X139302198Y-105710000D01*
X139505816Y-105625659D01*
X139611975Y-105519500D01*
X139918201Y-105519500D01*
X139954000Y-105526621D01*
X139989799Y-105519500D01*
X139989800Y-105519500D01*
X140095831Y-105498409D01*
X140216069Y-105418069D01*
X140236352Y-105387713D01*
X140449056Y-105175009D01*
X140521293Y-105223276D01*
X140856739Y-105290000D01*
X141083261Y-105290000D01*
X141418707Y-105223276D01*
X141750000Y-105001913D01*
X141750000Y-105818087D01*
X141418707Y-105596724D01*
X141083261Y-105530000D01*
X140856739Y-105530000D01*
X140521293Y-105596724D01*
X140140897Y-105850897D01*
X139886724Y-106231293D01*
X139797471Y-106680000D01*
X139886724Y-107128707D01*
X140140897Y-107509103D01*
X140521293Y-107763276D01*
X140856739Y-107830000D01*
X141083261Y-107830000D01*
X141418707Y-107763276D01*
X141750000Y-107541913D01*
X141750000Y-108358087D01*
X141418707Y-108136724D01*
X141083261Y-108070000D01*
X140856739Y-108070000D01*
X140521293Y-108136724D01*
X140140897Y-108390897D01*
X139886724Y-108771293D01*
X139797471Y-109220000D01*
X139886724Y-109668707D01*
X140140897Y-110049103D01*
X140521293Y-110303276D01*
X140856739Y-110370000D01*
X141083261Y-110370000D01*
X141418707Y-110303276D01*
X141750000Y-110081913D01*
X141750000Y-110898087D01*
X141418707Y-110676724D01*
X141083261Y-110610000D01*
X140856739Y-110610000D01*
X140521293Y-110676724D01*
X140140897Y-110930897D01*
X139886724Y-111311293D01*
X139797471Y-111760000D01*
X139886724Y-112208707D01*
X140140897Y-112589103D01*
X140521293Y-112843276D01*
X140856739Y-112910000D01*
X141083261Y-112910000D01*
X141418707Y-112843276D01*
X141750000Y-112621913D01*
X141750000Y-113438087D01*
X141418707Y-113216724D01*
X141083261Y-113150000D01*
X140856739Y-113150000D01*
X140521293Y-113216724D01*
X140140897Y-113470897D01*
X139886724Y-113851293D01*
X139797471Y-114300000D01*
X139886724Y-114748707D01*
X140140897Y-115129103D01*
X140521293Y-115383276D01*
X140856739Y-115450000D01*
X141083261Y-115450000D01*
X141418707Y-115383276D01*
X141750000Y-115161913D01*
X141750000Y-115978087D01*
X141418707Y-115756724D01*
X141083261Y-115690000D01*
X140856739Y-115690000D01*
X140521293Y-115756724D01*
X140140897Y-116010897D01*
X139886724Y-116391293D01*
X139797471Y-116840000D01*
X139886724Y-117288707D01*
X140140897Y-117669103D01*
X140239519Y-117735000D01*
X126460481Y-117735000D01*
X126559103Y-117669103D01*
X126813276Y-117288707D01*
X126902529Y-116840000D01*
X126813276Y-116391293D01*
X126559103Y-116010897D01*
X126178707Y-115756724D01*
X125843261Y-115690000D01*
X125616739Y-115690000D01*
X125281293Y-115756724D01*
X124950000Y-115978087D01*
X124950000Y-115161913D01*
X125281293Y-115383276D01*
X125616739Y-115450000D01*
X125843261Y-115450000D01*
X126178707Y-115383276D01*
X126559103Y-115129103D01*
X126813276Y-114748707D01*
X126902529Y-114300000D01*
X126813276Y-113851293D01*
X126559103Y-113470897D01*
X126494607Y-113427802D01*
X136479000Y-113427802D01*
X136479000Y-113648198D01*
X136563341Y-113851816D01*
X136719184Y-114007659D01*
X136922802Y-114092000D01*
X137143198Y-114092000D01*
X137346816Y-114007659D01*
X137502659Y-113851816D01*
X137566159Y-113698512D01*
X138336513Y-112928159D01*
X138489816Y-112864659D01*
X138645659Y-112708816D01*
X138730000Y-112505198D01*
X138730000Y-112284802D01*
X138645659Y-112081184D01*
X138489816Y-111925341D01*
X138286198Y-111841000D01*
X138065802Y-111841000D01*
X137862184Y-111925341D01*
X137706341Y-112081184D01*
X137642841Y-112234487D01*
X136872488Y-113004841D01*
X136719184Y-113068341D01*
X136563341Y-113224184D01*
X136479000Y-113427802D01*
X126494607Y-113427802D01*
X126178707Y-113216724D01*
X125843261Y-113150000D01*
X125616739Y-113150000D01*
X125281293Y-113216724D01*
X124950000Y-113438087D01*
X124950000Y-112621913D01*
X125281293Y-112843276D01*
X125616739Y-112910000D01*
X125843261Y-112910000D01*
X126178707Y-112843276D01*
X126559103Y-112589103D01*
X126813276Y-112208707D01*
X126902529Y-111760000D01*
X126813276Y-111311293D01*
X126559103Y-110930897D01*
X126178707Y-110676724D01*
X125843261Y-110610000D01*
X125616739Y-110610000D01*
X125281293Y-110676724D01*
X124950000Y-110898087D01*
X124950000Y-110081913D01*
X125281293Y-110303276D01*
X125616739Y-110370000D01*
X125843261Y-110370000D01*
X126178707Y-110303276D01*
X126559103Y-110049103D01*
X126813276Y-109668707D01*
X126902529Y-109220000D01*
X126813276Y-108771293D01*
X126559103Y-108390897D01*
X126178707Y-108136724D01*
X125843261Y-108070000D01*
X125616739Y-108070000D01*
X125281293Y-108136724D01*
X124950000Y-108358087D01*
X124950000Y-107541913D01*
X125281293Y-107763276D01*
X125616739Y-107830000D01*
X125843261Y-107830000D01*
X126178707Y-107763276D01*
X126559103Y-107509103D01*
X126813276Y-107128707D01*
X126902529Y-106680000D01*
X126813276Y-106231293D01*
X126784885Y-106188802D01*
X130637000Y-106188802D01*
X130637000Y-106409198D01*
X130721341Y-106612816D01*
X130877184Y-106768659D01*
X131080802Y-106853000D01*
X131301198Y-106853000D01*
X131504816Y-106768659D01*
X131610975Y-106662500D01*
X132295025Y-106662500D01*
X132401184Y-106768659D01*
X132604802Y-106853000D01*
X132825198Y-106853000D01*
X133028816Y-106768659D01*
X133184659Y-106612816D01*
X133269000Y-106409198D01*
X133269000Y-106188802D01*
X133184659Y-105985184D01*
X133028816Y-105829341D01*
X132825198Y-105745000D01*
X132604802Y-105745000D01*
X132401184Y-105829341D01*
X132295025Y-105935500D01*
X131610975Y-105935500D01*
X131504816Y-105829341D01*
X131301198Y-105745000D01*
X131080802Y-105745000D01*
X130877184Y-105829341D01*
X130721341Y-105985184D01*
X130637000Y-106188802D01*
X126784885Y-106188802D01*
X126559103Y-105850897D01*
X126178707Y-105596724D01*
X125843261Y-105530000D01*
X125616739Y-105530000D01*
X125281293Y-105596724D01*
X124950000Y-105818087D01*
X124950000Y-105001913D01*
X125281293Y-105223276D01*
X125616739Y-105290000D01*
X125843261Y-105290000D01*
X126178707Y-105223276D01*
X126559103Y-104969103D01*
X126813276Y-104588707D01*
X126902529Y-104140000D01*
X126813276Y-103691293D01*
X126559103Y-103310897D01*
X126178707Y-103056724D01*
X125843261Y-102990000D01*
X125616739Y-102990000D01*
X125281293Y-103056724D01*
X124950000Y-103278087D01*
X124950000Y-102886802D01*
X127796989Y-102886802D01*
X127796989Y-103107198D01*
X127881330Y-103310816D01*
X128037173Y-103466659D01*
X128240791Y-103551000D01*
X128461187Y-103551000D01*
X128594597Y-103495740D01*
X129484508Y-103495740D01*
X129637811Y-103559240D01*
X129858207Y-103559240D01*
X130061825Y-103474899D01*
X130217668Y-103319056D01*
X130302009Y-103115438D01*
X130302009Y-102895042D01*
X130217668Y-102691424D01*
X130061825Y-102535581D01*
X129858207Y-102451240D01*
X129637811Y-102451240D01*
X129484508Y-102514740D01*
X128634383Y-102514740D01*
X128461187Y-102443000D01*
X128240791Y-102443000D01*
X128037173Y-102527341D01*
X127881330Y-102683184D01*
X127796989Y-102886802D01*
X124950000Y-102886802D01*
X124950000Y-102461913D01*
X125281293Y-102683276D01*
X125616739Y-102750000D01*
X125843261Y-102750000D01*
X126178707Y-102683276D01*
X126559103Y-102429103D01*
X126813276Y-102048707D01*
X126873925Y-101743802D01*
X127970000Y-101743802D01*
X127970000Y-101964198D01*
X128054341Y-102167816D01*
X128210184Y-102323659D01*
X128413802Y-102408000D01*
X128634198Y-102408000D01*
X128837816Y-102323659D01*
X128943975Y-102217500D01*
X129120025Y-102217500D01*
X129226184Y-102323659D01*
X129429802Y-102408000D01*
X129650198Y-102408000D01*
X129853816Y-102323659D01*
X130009659Y-102167816D01*
X130094000Y-101964198D01*
X130094000Y-101743802D01*
X130009659Y-101540184D01*
X129853816Y-101384341D01*
X129650198Y-101300000D01*
X129429802Y-101300000D01*
X129226184Y-101384341D01*
X129120025Y-101490500D01*
X128943975Y-101490500D01*
X128837816Y-101384341D01*
X128634198Y-101300000D01*
X128413802Y-101300000D01*
X128210184Y-101384341D01*
X128054341Y-101540184D01*
X127970000Y-101743802D01*
X126873925Y-101743802D01*
X126902529Y-101600000D01*
X126813276Y-101151293D01*
X126559103Y-100770897D01*
X126178707Y-100516724D01*
X125843261Y-100450000D01*
X125616739Y-100450000D01*
X125281293Y-100516724D01*
X124950000Y-100738087D01*
X124950000Y-99921913D01*
X125281293Y-100143276D01*
X125616739Y-100210000D01*
X125843261Y-100210000D01*
X126178707Y-100143276D01*
X126559103Y-99889103D01*
X126813276Y-99508707D01*
X126902529Y-99060000D01*
X126813276Y-98611293D01*
X126559103Y-98230897D01*
X126178707Y-97976724D01*
X125843261Y-97910000D01*
X125616739Y-97910000D01*
X125281293Y-97976724D01*
X124950000Y-98198087D01*
X124950000Y-97381913D01*
X125281293Y-97603276D01*
X125616739Y-97670000D01*
X125843261Y-97670000D01*
X126178707Y-97603276D01*
X126559103Y-97349103D01*
X126813276Y-96968707D01*
X126902529Y-96520000D01*
X126813276Y-96071293D01*
X126559103Y-95690897D01*
X126178707Y-95436724D01*
X125843261Y-95370000D01*
X125616739Y-95370000D01*
X125281293Y-95436724D01*
X124950000Y-95658087D01*
X124950000Y-94841913D01*
X125281293Y-95063276D01*
X125616739Y-95130000D01*
X125843261Y-95130000D01*
X126178707Y-95063276D01*
X126444315Y-94885802D01*
X132523067Y-94885802D01*
X132523067Y-95106198D01*
X132607408Y-95309816D01*
X132763251Y-95465659D01*
X132966869Y-95550000D01*
X133187265Y-95550000D01*
X133340568Y-95486500D01*
X134610499Y-95486500D01*
X134763802Y-95550000D01*
X134984198Y-95550000D01*
X135187816Y-95465659D01*
X135343659Y-95309816D01*
X135428000Y-95106198D01*
X135428000Y-94885802D01*
X135343659Y-94682184D01*
X135187816Y-94526341D01*
X134984198Y-94442000D01*
X134763802Y-94442000D01*
X134610499Y-94505500D01*
X133340568Y-94505500D01*
X133187265Y-94442000D01*
X132966869Y-94442000D01*
X132763251Y-94526341D01*
X132607408Y-94682184D01*
X132523067Y-94885802D01*
X126444315Y-94885802D01*
X126559103Y-94809103D01*
X126813276Y-94428707D01*
X126902529Y-93980000D01*
X126813276Y-93531293D01*
X126559103Y-93150897D01*
X126178707Y-92896724D01*
X125843261Y-92830000D01*
X125616739Y-92830000D01*
X125281293Y-92896724D01*
X124950000Y-93118087D01*
X124950000Y-92301913D01*
X125281293Y-92523276D01*
X125616739Y-92590000D01*
X125843261Y-92590000D01*
X126178707Y-92523276D01*
X126559103Y-92269103D01*
X126813276Y-91888707D01*
X126902529Y-91440000D01*
X126813276Y-90991293D01*
X126559103Y-90610897D01*
X126178707Y-90356724D01*
X125843261Y-90290000D01*
X125616739Y-90290000D01*
X125281293Y-90356724D01*
X124950000Y-90578087D01*
X124950000Y-89761913D01*
X125281293Y-89983276D01*
X125616739Y-90050000D01*
X125843261Y-90050000D01*
X126178707Y-89983276D01*
X126419075Y-89822667D01*
X133894730Y-89822667D01*
X133905561Y-89848816D01*
X134061404Y-90004659D01*
X134265022Y-90089000D01*
X134485418Y-90089000D01*
X134689036Y-90004659D01*
X134844879Y-89848816D01*
X134929220Y-89645198D01*
X134929220Y-89424802D01*
X134844879Y-89221184D01*
X134689036Y-89065341D01*
X134485418Y-88981000D01*
X134265022Y-88981000D01*
X134172154Y-89019467D01*
X126878766Y-89019467D01*
X126902529Y-88900000D01*
X126813276Y-88451293D01*
X126559103Y-88070897D01*
X126178707Y-87816724D01*
X125843261Y-87750000D01*
X125616739Y-87750000D01*
X125281293Y-87816724D01*
X124950000Y-88038087D01*
X124950000Y-87221913D01*
X125281293Y-87443276D01*
X125616739Y-87510000D01*
X125843261Y-87510000D01*
X126178707Y-87443276D01*
X126537954Y-87203234D01*
X130347837Y-87203234D01*
X130389596Y-87336198D01*
X130670401Y-87463503D01*
X130978548Y-87473657D01*
X131267125Y-87365116D01*
X131310404Y-87336198D01*
X131352163Y-87203234D01*
X135347837Y-87203234D01*
X135389596Y-87336198D01*
X135670401Y-87463503D01*
X135978548Y-87473657D01*
X136267125Y-87365116D01*
X136310404Y-87336198D01*
X136352163Y-87203234D01*
X135850000Y-86701071D01*
X135347837Y-87203234D01*
X131352163Y-87203234D01*
X130850000Y-86701071D01*
X130347837Y-87203234D01*
X126537954Y-87203234D01*
X126559103Y-87189103D01*
X126804027Y-86822548D01*
X130070343Y-86822548D01*
X130178884Y-87111125D01*
X130207802Y-87154404D01*
X130340766Y-87196163D01*
X130842929Y-86694000D01*
X130857071Y-86694000D01*
X131359234Y-87196163D01*
X131492198Y-87154404D01*
X131619503Y-86873599D01*
X131621185Y-86822548D01*
X135070343Y-86822548D01*
X135178884Y-87111125D01*
X135207802Y-87154404D01*
X135340766Y-87196163D01*
X135842929Y-86694000D01*
X135857071Y-86694000D01*
X136359234Y-87196163D01*
X136492198Y-87154404D01*
X136619503Y-86873599D01*
X136629657Y-86565452D01*
X136521116Y-86276875D01*
X136492198Y-86233596D01*
X136359234Y-86191837D01*
X135857071Y-86694000D01*
X135842929Y-86694000D01*
X135340766Y-86191837D01*
X135207802Y-86233596D01*
X135080497Y-86514401D01*
X135070343Y-86822548D01*
X131621185Y-86822548D01*
X131629657Y-86565452D01*
X131521116Y-86276875D01*
X131492198Y-86233596D01*
X131359234Y-86191837D01*
X130857071Y-86694000D01*
X130842929Y-86694000D01*
X130340766Y-86191837D01*
X130207802Y-86233596D01*
X130080497Y-86514401D01*
X130070343Y-86822548D01*
X126804027Y-86822548D01*
X126813276Y-86808707D01*
X126902529Y-86360000D01*
X126867673Y-86184766D01*
X130347837Y-86184766D01*
X130850000Y-86686929D01*
X131352163Y-86184766D01*
X135347837Y-86184766D01*
X135850000Y-86686929D01*
X136352163Y-86184766D01*
X136310404Y-86051802D01*
X136029599Y-85924497D01*
X135721452Y-85914343D01*
X135432875Y-86022884D01*
X135389596Y-86051802D01*
X135347837Y-86184766D01*
X131352163Y-86184766D01*
X131310404Y-86051802D01*
X131029599Y-85924497D01*
X130721452Y-85914343D01*
X130432875Y-86022884D01*
X130389596Y-86051802D01*
X130347837Y-86184766D01*
X126867673Y-86184766D01*
X126813276Y-85911293D01*
X126559103Y-85530897D01*
X126178707Y-85276724D01*
X125843261Y-85210000D01*
X125616739Y-85210000D01*
X125281293Y-85276724D01*
X124950000Y-85498087D01*
X124950000Y-84607074D01*
X124957473Y-84599601D01*
X125044856Y-84771527D01*
X125461143Y-84961289D01*
X125918361Y-84977301D01*
X126346903Y-84817125D01*
X126415144Y-84771527D01*
X126441574Y-84719525D01*
X129131546Y-84719525D01*
X129209803Y-84883661D01*
X129598994Y-85060932D01*
X130026398Y-85075773D01*
X130426947Y-84925923D01*
X130490197Y-84883661D01*
X130568454Y-84719525D01*
X136131546Y-84719525D01*
X136209803Y-84883661D01*
X136598994Y-85060932D01*
X137026398Y-85075773D01*
X137426947Y-84925923D01*
X137490197Y-84883661D01*
X137568454Y-84719525D01*
X136850000Y-84001071D01*
X136131546Y-84719525D01*
X130568454Y-84719525D01*
X129850000Y-84001071D01*
X129131546Y-84719525D01*
X126441574Y-84719525D01*
X126502528Y-84599599D01*
X125730000Y-83827071D01*
X125715858Y-83841214D01*
X125708787Y-83834143D01*
X125722929Y-83820000D01*
X125737071Y-83820000D01*
X126509599Y-84592528D01*
X126681527Y-84505144D01*
X126834119Y-84170398D01*
X128768227Y-84170398D01*
X128918077Y-84570947D01*
X128960339Y-84634197D01*
X129124475Y-84712454D01*
X129842929Y-83994000D01*
X129857071Y-83994000D01*
X130575525Y-84712454D01*
X130739661Y-84634197D01*
X130916932Y-84245006D01*
X130919522Y-84170398D01*
X135768227Y-84170398D01*
X135918077Y-84570947D01*
X135960339Y-84634197D01*
X136124475Y-84712454D01*
X136842929Y-83994000D01*
X136857071Y-83994000D01*
X137575525Y-84712454D01*
X137739661Y-84634197D01*
X137916932Y-84245006D01*
X137931773Y-83817602D01*
X137781923Y-83417053D01*
X137739661Y-83353803D01*
X137575525Y-83275546D01*
X136857071Y-83994000D01*
X136842929Y-83994000D01*
X136124475Y-83275546D01*
X135960339Y-83353803D01*
X135783068Y-83742994D01*
X135768227Y-84170398D01*
X130919522Y-84170398D01*
X130931773Y-83817602D01*
X130781923Y-83417053D01*
X130739661Y-83353803D01*
X130575525Y-83275546D01*
X129857071Y-83994000D01*
X129842929Y-83994000D01*
X129124475Y-83275546D01*
X128960339Y-83353803D01*
X128783068Y-83742994D01*
X128768227Y-84170398D01*
X126834119Y-84170398D01*
X126871289Y-84088857D01*
X126887301Y-83631639D01*
X126727125Y-83203097D01*
X126681527Y-83134856D01*
X126509599Y-83047472D01*
X125737071Y-83820000D01*
X125722929Y-83820000D01*
X125708787Y-83805858D01*
X125715858Y-83798787D01*
X125730000Y-83812929D01*
X126502528Y-83040401D01*
X126453531Y-82944000D01*
X129588673Y-82944000D01*
X129273053Y-83062077D01*
M02*
