G04 #@! TF.GenerationSoftware,KiCad,Pcbnew,(5.0.0-rc2-dev-252-gb5f1fdd98)*
G04 #@! TF.CreationDate,2018-04-01T12:07:08-07:00*
G04 #@! TF.ProjectId,smolfpga,736D6F6C667067612E6B696361645F70,rev?*
G04 #@! TF.SameCoordinates,Original*
G04 #@! TF.FileFunction,Legend,Top*
G04 #@! TF.FilePolarity,Positive*
%FSLAX46Y46*%
G04 Gerber Fmt 4.6, Leading zero omitted, Abs format (unit mm)*
G04 Created by KiCad (PCBNEW (5.0.0-rc2-dev-252-gb5f1fdd98)) date 04/01/18 12:07:08*
%MOMM*%
%LPD*%
G01*
G04 APERTURE LIST*
%ADD10C,0.152400*%
%ADD11C,0.175000*%
%ADD12C,0.120000*%
%ADD13C,0.100000*%
%ADD14C,0.150000*%
%ADD15C,0.127000*%
G04 APERTURE END LIST*
D10*
X127425631Y-83439000D02*
X127353060Y-83402714D01*
X127244202Y-83402714D01*
X127135345Y-83439000D01*
X127062774Y-83511571D01*
X127026488Y-83584142D01*
X126990202Y-83729285D01*
X126990202Y-83838142D01*
X127026488Y-83983285D01*
X127062774Y-84055857D01*
X127135345Y-84128428D01*
X127244202Y-84164714D01*
X127316774Y-84164714D01*
X127425631Y-84128428D01*
X127461917Y-84092142D01*
X127461917Y-83838142D01*
X127316774Y-83838142D01*
X126990202Y-88555285D02*
X127026488Y-88519000D01*
X127099060Y-88482714D01*
X127280488Y-88482714D01*
X127353060Y-88519000D01*
X127389345Y-88555285D01*
X127425631Y-88627857D01*
X127425631Y-88700428D01*
X127389345Y-88809285D01*
X126953917Y-89244714D01*
X127425631Y-89244714D01*
X126953917Y-91022714D02*
X127425631Y-91022714D01*
X127171631Y-91313000D01*
X127280488Y-91313000D01*
X127353060Y-91349285D01*
X127389345Y-91385571D01*
X127425631Y-91458142D01*
X127425631Y-91639571D01*
X127389345Y-91712142D01*
X127353060Y-91748428D01*
X127280488Y-91784714D01*
X127062774Y-91784714D01*
X126990202Y-91748428D01*
X126953917Y-91712142D01*
X127425631Y-86704714D02*
X126990202Y-86704714D01*
X127207917Y-86704714D02*
X127207917Y-85942714D01*
X127135345Y-86051571D01*
X127062774Y-86124142D01*
X126990202Y-86160428D01*
D11*
X138503783Y-90308866D02*
X138103783Y-90308866D01*
X138303783Y-90308866D02*
X138303783Y-89608866D01*
X138237116Y-89708866D01*
X138170450Y-89775533D01*
X138103783Y-89808866D01*
X138803783Y-90242200D02*
X138837116Y-90275533D01*
X138803783Y-90308866D01*
X138770450Y-90275533D01*
X138803783Y-90242200D01*
X138803783Y-90308866D01*
X139103783Y-89675533D02*
X139137116Y-89642200D01*
X139203783Y-89608866D01*
X139370450Y-89608866D01*
X139437116Y-89642200D01*
X139470450Y-89675533D01*
X139503783Y-89742200D01*
X139503783Y-89808866D01*
X139470450Y-89908866D01*
X139070450Y-90308866D01*
X139503783Y-90308866D01*
X139737116Y-89842200D02*
X139903783Y-90308866D01*
X140070450Y-89842200D01*
D10*
X127389345Y-96102714D02*
X127026488Y-96102714D01*
X126990202Y-96465571D01*
X127026488Y-96429285D01*
X127099060Y-96393000D01*
X127280488Y-96393000D01*
X127353060Y-96429285D01*
X127389345Y-96465571D01*
X127425631Y-96538142D01*
X127425631Y-96719571D01*
X127389345Y-96792142D01*
X127353060Y-96828428D01*
X127280488Y-96864714D01*
X127099060Y-96864714D01*
X127026488Y-96828428D01*
X126990202Y-96792142D01*
X127425631Y-117184714D02*
X126990202Y-117184714D01*
X127207917Y-117184714D02*
X127207917Y-116422714D01*
X127135345Y-116531571D01*
X127062774Y-116604142D01*
X126990202Y-116640428D01*
X127679631Y-116422714D02*
X128151345Y-116422714D01*
X127897345Y-116713000D01*
X128006202Y-116713000D01*
X128078774Y-116749285D01*
X128115060Y-116785571D01*
X128151345Y-116858142D01*
X128151345Y-117039571D01*
X128115060Y-117112142D01*
X128078774Y-117148428D01*
X128006202Y-117184714D01*
X127788488Y-117184714D01*
X127715917Y-117148428D01*
X127679631Y-117112142D01*
X138548654Y-101255285D02*
X138584940Y-101219000D01*
X138657511Y-101182714D01*
X138838940Y-101182714D01*
X138911511Y-101219000D01*
X138947797Y-101255285D01*
X138984082Y-101327857D01*
X138984082Y-101400428D01*
X138947797Y-101509285D01*
X138512368Y-101944714D01*
X138984082Y-101944714D01*
X139455797Y-101182714D02*
X139528368Y-101182714D01*
X139600940Y-101219000D01*
X139637225Y-101255285D01*
X139673511Y-101327857D01*
X139709797Y-101473000D01*
X139709797Y-101654428D01*
X139673511Y-101799571D01*
X139637225Y-101872142D01*
X139600940Y-101908428D01*
X139528368Y-101944714D01*
X139455797Y-101944714D01*
X139383225Y-101908428D01*
X139346940Y-101872142D01*
X139310654Y-101799571D01*
X139274368Y-101654428D01*
X139274368Y-101473000D01*
X139310654Y-101327857D01*
X139346940Y-101255285D01*
X139383225Y-101219000D01*
X139455797Y-101182714D01*
X138548654Y-98715285D02*
X138584940Y-98679000D01*
X138657511Y-98642714D01*
X138838940Y-98642714D01*
X138911511Y-98679000D01*
X138947797Y-98715285D01*
X138984082Y-98787857D01*
X138984082Y-98860428D01*
X138947797Y-98969285D01*
X138512368Y-99404714D01*
X138984082Y-99404714D01*
X139709797Y-99404714D02*
X139274368Y-99404714D01*
X139492082Y-99404714D02*
X139492082Y-98642714D01*
X139419511Y-98751571D01*
X139346940Y-98824142D01*
X139274368Y-98860428D01*
X138650254Y-93635285D02*
X138686540Y-93599000D01*
X138759111Y-93562714D01*
X138940540Y-93562714D01*
X139013111Y-93599000D01*
X139049397Y-93635285D01*
X139085682Y-93707857D01*
X139085682Y-93780428D01*
X139049397Y-93889285D01*
X138613968Y-94324714D01*
X139085682Y-94324714D01*
X139339682Y-93562714D02*
X139811397Y-93562714D01*
X139557397Y-93853000D01*
X139666254Y-93853000D01*
X139738825Y-93889285D01*
X139775111Y-93925571D01*
X139811397Y-93998142D01*
X139811397Y-94179571D01*
X139775111Y-94252142D01*
X139738825Y-94288428D01*
X139666254Y-94324714D01*
X139448540Y-94324714D01*
X139375968Y-94288428D01*
X139339682Y-94252142D01*
D11*
X139470450Y-84655866D02*
X139137116Y-84655866D01*
X139103783Y-84989200D01*
X139137116Y-84955866D01*
X139203783Y-84922533D01*
X139370450Y-84922533D01*
X139437116Y-84955866D01*
X139470450Y-84989200D01*
X139503783Y-85055866D01*
X139503783Y-85222533D01*
X139470450Y-85289200D01*
X139437116Y-85322533D01*
X139370450Y-85355866D01*
X139203783Y-85355866D01*
X139137116Y-85322533D01*
X139103783Y-85289200D01*
X139737116Y-84889200D02*
X139903783Y-85355866D01*
X140070450Y-84889200D01*
D10*
X127353060Y-98642714D02*
X127207917Y-98642714D01*
X127135345Y-98679000D01*
X127099060Y-98715285D01*
X127026488Y-98824142D01*
X126990202Y-98969285D01*
X126990202Y-99259571D01*
X127026488Y-99332142D01*
X127062774Y-99368428D01*
X127135345Y-99404714D01*
X127280488Y-99404714D01*
X127353060Y-99368428D01*
X127389345Y-99332142D01*
X127425631Y-99259571D01*
X127425631Y-99078142D01*
X127389345Y-99005571D01*
X127353060Y-98969285D01*
X127280488Y-98933000D01*
X127135345Y-98933000D01*
X127062774Y-98969285D01*
X127026488Y-99005571D01*
X126990202Y-99078142D01*
X138984082Y-109564714D02*
X138548654Y-109564714D01*
X138766368Y-109564714D02*
X138766368Y-108802714D01*
X138693797Y-108911571D01*
X138621225Y-108984142D01*
X138548654Y-109020428D01*
X139238082Y-108802714D02*
X139746082Y-108802714D01*
X139419511Y-109564714D01*
X138984082Y-107024714D02*
X138548654Y-107024714D01*
X138766368Y-107024714D02*
X138766368Y-106262714D01*
X138693797Y-106371571D01*
X138621225Y-106444142D01*
X138548654Y-106480428D01*
X139419511Y-106589285D02*
X139346940Y-106553000D01*
X139310654Y-106516714D01*
X139274368Y-106444142D01*
X139274368Y-106407857D01*
X139310654Y-106335285D01*
X139346940Y-106299000D01*
X139419511Y-106262714D01*
X139564654Y-106262714D01*
X139637225Y-106299000D01*
X139673511Y-106335285D01*
X139709797Y-106407857D01*
X139709797Y-106444142D01*
X139673511Y-106516714D01*
X139637225Y-106553000D01*
X139564654Y-106589285D01*
X139419511Y-106589285D01*
X139346940Y-106625571D01*
X139310654Y-106661857D01*
X139274368Y-106734428D01*
X139274368Y-106879571D01*
X139310654Y-106952142D01*
X139346940Y-106988428D01*
X139419511Y-107024714D01*
X139564654Y-107024714D01*
X139637225Y-106988428D01*
X139673511Y-106952142D01*
X139709797Y-106879571D01*
X139709797Y-106734428D01*
X139673511Y-106661857D01*
X139637225Y-106625571D01*
X139564654Y-106589285D01*
X126953917Y-101182714D02*
X127461917Y-101182714D01*
X127135345Y-101944714D01*
X127135345Y-104049285D02*
X127062774Y-104013000D01*
X127026488Y-103976714D01*
X126990202Y-103904142D01*
X126990202Y-103867857D01*
X127026488Y-103795285D01*
X127062774Y-103759000D01*
X127135345Y-103722714D01*
X127280488Y-103722714D01*
X127353060Y-103759000D01*
X127389345Y-103795285D01*
X127425631Y-103867857D01*
X127425631Y-103904142D01*
X127389345Y-103976714D01*
X127353060Y-104013000D01*
X127280488Y-104049285D01*
X127135345Y-104049285D01*
X127062774Y-104085571D01*
X127026488Y-104121857D01*
X126990202Y-104194428D01*
X126990202Y-104339571D01*
X127026488Y-104412142D01*
X127062774Y-104448428D01*
X127135345Y-104484714D01*
X127280488Y-104484714D01*
X127353060Y-104448428D01*
X127389345Y-104412142D01*
X127425631Y-104339571D01*
X127425631Y-104194428D01*
X127389345Y-104121857D01*
X127353060Y-104085571D01*
X127280488Y-104049285D01*
X127062774Y-107024714D02*
X127207917Y-107024714D01*
X127280488Y-106988428D01*
X127316774Y-106952142D01*
X127389345Y-106843285D01*
X127425631Y-106698142D01*
X127425631Y-106407857D01*
X127389345Y-106335285D01*
X127353060Y-106299000D01*
X127280488Y-106262714D01*
X127135345Y-106262714D01*
X127062774Y-106299000D01*
X127026488Y-106335285D01*
X126990202Y-106407857D01*
X126990202Y-106589285D01*
X127026488Y-106661857D01*
X127062774Y-106698142D01*
X127135345Y-106734428D01*
X127280488Y-106734428D01*
X127353060Y-106698142D01*
X127389345Y-106661857D01*
X127425631Y-106589285D01*
X127425631Y-109564714D02*
X126990202Y-109564714D01*
X127207917Y-109564714D02*
X127207917Y-108802714D01*
X127135345Y-108911571D01*
X127062774Y-108984142D01*
X126990202Y-109020428D01*
X127897345Y-108802714D02*
X127969917Y-108802714D01*
X128042488Y-108839000D01*
X128078774Y-108875285D01*
X128115060Y-108947857D01*
X128151345Y-109093000D01*
X128151345Y-109274428D01*
X128115060Y-109419571D01*
X128078774Y-109492142D01*
X128042488Y-109528428D01*
X127969917Y-109564714D01*
X127897345Y-109564714D01*
X127824774Y-109528428D01*
X127788488Y-109492142D01*
X127752202Y-109419571D01*
X127715917Y-109274428D01*
X127715917Y-109093000D01*
X127752202Y-108947857D01*
X127788488Y-108875285D01*
X127824774Y-108839000D01*
X127897345Y-108802714D01*
X138984082Y-104484714D02*
X138548654Y-104484714D01*
X138766368Y-104484714D02*
X138766368Y-103722714D01*
X138693797Y-103831571D01*
X138621225Y-103904142D01*
X138548654Y-103940428D01*
X139346940Y-104484714D02*
X139492082Y-104484714D01*
X139564654Y-104448428D01*
X139600940Y-104412142D01*
X139673511Y-104303285D01*
X139709797Y-104158142D01*
X139709797Y-103867857D01*
X139673511Y-103795285D01*
X139637225Y-103759000D01*
X139564654Y-103722714D01*
X139419511Y-103722714D01*
X139346940Y-103759000D01*
X139310654Y-103795285D01*
X139274368Y-103867857D01*
X139274368Y-104049285D01*
X139310654Y-104121857D01*
X139346940Y-104158142D01*
X139419511Y-104194428D01*
X139564654Y-104194428D01*
X139637225Y-104158142D01*
X139673511Y-104121857D01*
X139709797Y-104049285D01*
X127425631Y-112104714D02*
X126990202Y-112104714D01*
X127207917Y-112104714D02*
X127207917Y-111342714D01*
X127135345Y-111451571D01*
X127062774Y-111524142D01*
X126990202Y-111560428D01*
X128151345Y-112104714D02*
X127715917Y-112104714D01*
X127933631Y-112104714D02*
X127933631Y-111342714D01*
X127861060Y-111451571D01*
X127788488Y-111524142D01*
X127715917Y-111560428D01*
X127425631Y-114644714D02*
X126990202Y-114644714D01*
X127207917Y-114644714D02*
X127207917Y-113882714D01*
X127135345Y-113991571D01*
X127062774Y-114064142D01*
X126990202Y-114100428D01*
X127715917Y-113955285D02*
X127752202Y-113919000D01*
X127824774Y-113882714D01*
X128006202Y-113882714D01*
X128078774Y-113919000D01*
X128115060Y-113955285D01*
X128151345Y-114027857D01*
X128151345Y-114100428D01*
X128115060Y-114209285D01*
X127679631Y-114644714D01*
X128151345Y-114644714D01*
D11*
X138070450Y-87094266D02*
X138503783Y-87094266D01*
X138270450Y-87360933D01*
X138370450Y-87360933D01*
X138437116Y-87394266D01*
X138470450Y-87427600D01*
X138503783Y-87494266D01*
X138503783Y-87660933D01*
X138470450Y-87727600D01*
X138437116Y-87760933D01*
X138370450Y-87794266D01*
X138170450Y-87794266D01*
X138103783Y-87760933D01*
X138070450Y-87727600D01*
X138803783Y-87727600D02*
X138837116Y-87760933D01*
X138803783Y-87794266D01*
X138770450Y-87760933D01*
X138803783Y-87727600D01*
X138803783Y-87794266D01*
X139070450Y-87094266D02*
X139503783Y-87094266D01*
X139270450Y-87360933D01*
X139370450Y-87360933D01*
X139437116Y-87394266D01*
X139470450Y-87427600D01*
X139503783Y-87494266D01*
X139503783Y-87660933D01*
X139470450Y-87727600D01*
X139437116Y-87760933D01*
X139370450Y-87794266D01*
X139170450Y-87794266D01*
X139103783Y-87760933D01*
X139070450Y-87727600D01*
X139737116Y-87327600D02*
X139903783Y-87794266D01*
X140070450Y-87327600D01*
D10*
X138984082Y-117184714D02*
X138548654Y-117184714D01*
X138766368Y-117184714D02*
X138766368Y-116422714D01*
X138693797Y-116531571D01*
X138621225Y-116604142D01*
X138548654Y-116640428D01*
X139637225Y-116676714D02*
X139637225Y-117184714D01*
X139455797Y-116386428D02*
X139274368Y-116930714D01*
X139746082Y-116930714D01*
X138548654Y-90841285D02*
X138584940Y-90805000D01*
X138657511Y-90768714D01*
X138838940Y-90768714D01*
X138911511Y-90805000D01*
X138947797Y-90841285D01*
X138984082Y-90913857D01*
X138984082Y-90986428D01*
X138947797Y-91095285D01*
X138512368Y-91530714D01*
X138984082Y-91530714D01*
X139637225Y-91022714D02*
X139637225Y-91530714D01*
X139455797Y-90732428D02*
X139274368Y-91276714D01*
X139746082Y-91276714D01*
X138984082Y-114644714D02*
X138548654Y-114644714D01*
X138766368Y-114644714D02*
X138766368Y-113882714D01*
X138693797Y-113991571D01*
X138621225Y-114064142D01*
X138548654Y-114100428D01*
X139673511Y-113882714D02*
X139310654Y-113882714D01*
X139274368Y-114245571D01*
X139310654Y-114209285D01*
X139383225Y-114173000D01*
X139564654Y-114173000D01*
X139637225Y-114209285D01*
X139673511Y-114245571D01*
X139709797Y-114318142D01*
X139709797Y-114499571D01*
X139673511Y-114572142D01*
X139637225Y-114608428D01*
X139564654Y-114644714D01*
X139383225Y-114644714D01*
X139310654Y-114608428D01*
X139274368Y-114572142D01*
X138984082Y-112104714D02*
X138548654Y-112104714D01*
X138766368Y-112104714D02*
X138766368Y-111342714D01*
X138693797Y-111451571D01*
X138621225Y-111524142D01*
X138548654Y-111560428D01*
X139637225Y-111342714D02*
X139492082Y-111342714D01*
X139419511Y-111379000D01*
X139383225Y-111415285D01*
X139310654Y-111524142D01*
X139274368Y-111669285D01*
X139274368Y-111959571D01*
X139310654Y-112032142D01*
X139346940Y-112068428D01*
X139419511Y-112104714D01*
X139564654Y-112104714D01*
X139637225Y-112068428D01*
X139673511Y-112032142D01*
X139709797Y-111959571D01*
X139709797Y-111778142D01*
X139673511Y-111705571D01*
X139637225Y-111669285D01*
X139564654Y-111633000D01*
X139419511Y-111633000D01*
X139346940Y-111669285D01*
X139310654Y-111705571D01*
X139274368Y-111778142D01*
X138548654Y-96099085D02*
X138584940Y-96062800D01*
X138657511Y-96026514D01*
X138838940Y-96026514D01*
X138911511Y-96062800D01*
X138947797Y-96099085D01*
X138984082Y-96171657D01*
X138984082Y-96244228D01*
X138947797Y-96353085D01*
X138512368Y-96788514D01*
X138984082Y-96788514D01*
X139274368Y-96099085D02*
X139310654Y-96062800D01*
X139383225Y-96026514D01*
X139564654Y-96026514D01*
X139637225Y-96062800D01*
X139673511Y-96099085D01*
X139709797Y-96171657D01*
X139709797Y-96244228D01*
X139673511Y-96353085D01*
X139238082Y-96788514D01*
X139709797Y-96788514D01*
X127353060Y-93816714D02*
X127353060Y-94324714D01*
X127171631Y-93526428D02*
X126990202Y-94070714D01*
X127461917Y-94070714D01*
D12*
X135344000Y-96643000D02*
X135344000Y-96143000D01*
X134404000Y-96143000D02*
X134404000Y-96643000D01*
X131830000Y-97117000D02*
X132330000Y-97117000D01*
X132330000Y-96177000D02*
X131830000Y-96177000D01*
X132330000Y-97193000D02*
X131830000Y-97193000D01*
X131830000Y-98133000D02*
X132330000Y-98133000D01*
X130086000Y-98429000D02*
X130086000Y-98929000D01*
X131026000Y-98929000D02*
X131026000Y-98429000D01*
X129883000Y-98929000D02*
X129883000Y-98429000D01*
X128943000Y-98429000D02*
X128943000Y-98929000D01*
X132169000Y-103120000D02*
X132169000Y-102620000D01*
X131229000Y-102620000D02*
X131229000Y-103120000D01*
X130086000Y-102620000D02*
X130086000Y-103120000D01*
X131026000Y-103120000D02*
X131026000Y-102620000D01*
X133227000Y-104229000D02*
X133727000Y-104229000D01*
X133727000Y-103289000D02*
X133227000Y-103289000D01*
X136182000Y-99191000D02*
X136182000Y-99691000D01*
X137122000Y-99691000D02*
X137122000Y-99191000D01*
X135979000Y-99691000D02*
X135979000Y-99191000D01*
X135039000Y-99191000D02*
X135039000Y-99691000D01*
X133727000Y-102146000D02*
X133227000Y-102146000D01*
X133227000Y-103086000D02*
X133727000Y-103086000D01*
X134108000Y-104432000D02*
X133608000Y-104432000D01*
X133608000Y-105372000D02*
X134108000Y-105372000D01*
X136394000Y-108369000D02*
X135894000Y-108369000D01*
X135894000Y-109309000D02*
X136394000Y-109309000D01*
X136563000Y-101477000D02*
X136563000Y-101977000D01*
X137503000Y-101977000D02*
X137503000Y-101477000D01*
X136360000Y-101977000D02*
X136360000Y-101477000D01*
X135420000Y-101477000D02*
X135420000Y-101977000D01*
X138519000Y-93595000D02*
X138519000Y-93095000D01*
X137579000Y-93095000D02*
X137579000Y-93595000D01*
X137884000Y-89277000D02*
X137884000Y-88777000D01*
X136944000Y-88777000D02*
X136944000Y-89277000D01*
X134362000Y-108877000D02*
X133862000Y-108877000D01*
X133862000Y-109817000D02*
X134362000Y-109817000D01*
X135386000Y-90513000D02*
X135886000Y-90513000D01*
X135886000Y-89573000D02*
X135386000Y-89573000D01*
X136136000Y-89453000D02*
X135136000Y-89453000D01*
X135136000Y-88093000D02*
X136136000Y-88093000D01*
X131195000Y-89303000D02*
X131695000Y-89303000D01*
X131695000Y-88243000D02*
X131195000Y-88243000D01*
X133380000Y-88994000D02*
X133380000Y-88494000D01*
X132320000Y-88494000D02*
X132320000Y-88994000D01*
X134380000Y-88994000D02*
X134380000Y-88494000D01*
X133320000Y-88494000D02*
X133320000Y-88994000D01*
X130070000Y-100834000D02*
X130070000Y-100334000D01*
X129010000Y-100334000D02*
X129010000Y-100834000D01*
X136376000Y-115447000D02*
X136376000Y-115947000D01*
X137436000Y-115947000D02*
X137436000Y-115447000D01*
X136630000Y-111256000D02*
X136630000Y-111756000D01*
X137690000Y-111756000D02*
X137690000Y-111256000D01*
X129536000Y-108690000D02*
X129036000Y-108690000D01*
X129036000Y-109750000D02*
X129536000Y-109750000D01*
X129475000Y-114449000D02*
X129975000Y-114449000D01*
X129975000Y-113389000D02*
X129475000Y-113389000D01*
D13*
X135454000Y-104918000D02*
X135129000Y-104918000D01*
X135129000Y-104918000D02*
X135129000Y-105218000D01*
X138104000Y-106918000D02*
X138429000Y-106918000D01*
X138429000Y-106918000D02*
X138429000Y-106618000D01*
X138129000Y-104918000D02*
X138429000Y-104918000D01*
X138429000Y-104918000D02*
X138429000Y-105243000D01*
X135129000Y-106593000D02*
X135354000Y-106918000D01*
X135354000Y-106918000D02*
X135454000Y-106918000D01*
X135454000Y-106918000D02*
X135454000Y-107443000D01*
X135129000Y-106593000D02*
X135129000Y-106218000D01*
X137413000Y-91908000D02*
X137413000Y-92283000D01*
X137088000Y-91583000D02*
X137088000Y-91058000D01*
X137188000Y-91583000D02*
X137088000Y-91583000D01*
X137413000Y-91908000D02*
X137188000Y-91583000D01*
X134113000Y-93583000D02*
X134113000Y-93258000D01*
X134413000Y-93583000D02*
X134113000Y-93583000D01*
X134113000Y-91583000D02*
X134113000Y-91883000D01*
X134438000Y-91583000D02*
X134113000Y-91583000D01*
X137413000Y-93583000D02*
X137413000Y-93283000D01*
X137088000Y-93583000D02*
X137413000Y-93583000D01*
D14*
X130263000Y-110008000D02*
X130263000Y-110108000D01*
X134913000Y-110008000D02*
X134913000Y-110208000D01*
X134913000Y-113258000D02*
X134913000Y-113058000D01*
X130263000Y-113258000D02*
X130263000Y-113058000D01*
X130263000Y-110008000D02*
X134913000Y-110008000D01*
X130263000Y-113258000D02*
X134913000Y-113258000D01*
X130263000Y-110108000D02*
X128913000Y-110108000D01*
D12*
X137700000Y-81314000D02*
X129000000Y-81314000D01*
X137700000Y-87724000D02*
X129000000Y-87724000D01*
X129000000Y-87724000D02*
X129000000Y-81314000D01*
X129000000Y-82544000D02*
X137700000Y-82544000D01*
X137700000Y-81314000D02*
X137700000Y-87724000D01*
D15*
X134843887Y-98638155D02*
X134843887Y-101638155D01*
X134843887Y-101638155D02*
X131843887Y-101638155D01*
X131843887Y-101638155D02*
X131843887Y-98638155D01*
X131843887Y-98638155D02*
X134843887Y-98638155D01*
D13*
X133856000Y-96520000D02*
X133856000Y-96520000D01*
X133856000Y-96520000D01*
X133856000Y-96520000D01*
X133856000Y-96520000D01*
X133856000Y-96520000D01*
X133856000Y-96520000D01*
X133856000Y-96520000D01*
X133856000Y-96520000D01*
X133856000Y-96520000D01*
X133856000Y-96520000D02*
X133856000Y-96520000D01*
X133856000Y-96520000D01*
X133856000Y-96520000D01*
X133856000Y-96520000D01*
X133856000Y-96520000D01*
X133856000Y-96520000D01*
X133856000Y-96520000D01*
X133856000Y-96520000D01*
X133856000Y-96520000D01*
X133856000Y-96520000D01*
X133856000Y-96520000D01*
X133856000Y-96520000D01*
X133856000Y-96520000D01*
X133856000Y-96520000D01*
X133856000Y-96520000D01*
D14*
D13*
X133604000Y-96393000D02*
X133604000Y-96393000D01*
X133604000Y-96393000D01*
X133604000Y-96393000D01*
X133604000Y-96393000D01*
X133604000Y-96393000D01*
X133604000Y-96393000D01*
X133604000Y-96393000D01*
X133604000Y-96393000D01*
X133604000Y-96393000D01*
X133604000Y-96393000D01*
X133604000Y-96393000D01*
X133604000Y-96393000D01*
X133604000Y-96393000D01*
X133604000Y-96393000D01*
X133604000Y-96393000D01*
X133604000Y-96393000D02*
X133604000Y-96393000D01*
X133604000Y-96393000D01*
X133604000Y-96393000D01*
X133604000Y-96393000D01*
X133604000Y-96393000D01*
X133604000Y-96393000D01*
X133604000Y-96393000D01*
X133604000Y-96393000D01*
X133604000Y-96393000D01*
X133604000Y-96393000D01*
X133604000Y-96393000D02*
X133604000Y-96393000D01*
X133604000Y-96393000D02*
X133604000Y-96393000D01*
X133604000Y-96393000D01*
X133604000Y-96393000D01*
X133604000Y-96393000D01*
D14*
D13*
X132080000Y-95377000D02*
X132080000Y-95377000D01*
X132080000Y-95377000D01*
X132080000Y-95377000D01*
X132080000Y-95377000D01*
X132080000Y-95377000D01*
X132080000Y-95377000D01*
X132080000Y-95377000D01*
X132080000Y-95377000D01*
X132080000Y-95377000D01*
X132080000Y-95377000D01*
X132080000Y-95377000D01*
X132080000Y-95377000D01*
X132080000Y-95377000D01*
X132080000Y-95377000D01*
X132080000Y-95377000D01*
X132080000Y-95377000D02*
X132080000Y-95377000D01*
X132080000Y-95377000D02*
X132080000Y-95377000D01*
X132080000Y-95377000D01*
X132080000Y-95377000D01*
X132080000Y-95377000D01*
X132080000Y-95377000D02*
X132080000Y-95377000D01*
X132080000Y-95377000D01*
X132080000Y-95377000D01*
X132080000Y-95377000D01*
X132080000Y-95377000D01*
X132080000Y-95377000D01*
X132080000Y-95377000D01*
X132080000Y-95377000D01*
X132080000Y-95377000D01*
X132080000Y-95377000D01*
X132080000Y-95377000D01*
X132080000Y-95377000D01*
X132080000Y-95377000D01*
X132080000Y-95377000D01*
X132080000Y-95377000D01*
X132080000Y-95377000D01*
X132080000Y-95377000D01*
X132080000Y-95377000D01*
X132080000Y-95377000D01*
X132080000Y-95377000D01*
X132080000Y-95377000D01*
D14*
D13*
X132080000Y-96393000D02*
X132080000Y-96393000D01*
X132080000Y-96393000D01*
X132080000Y-96393000D01*
X132080000Y-96393000D01*
X132080000Y-96393000D01*
X132080000Y-96393000D01*
X132080000Y-96393000D01*
X132080000Y-96393000D01*
X132080000Y-96393000D01*
X132080000Y-96393000D01*
X132080000Y-96393000D01*
X132080000Y-96393000D01*
X132080000Y-96393000D01*
X132080000Y-96393000D01*
X132080000Y-96393000D01*
X132080000Y-96393000D02*
X132080000Y-96393000D01*
X132080000Y-96393000D02*
X132080000Y-96393000D01*
X132080000Y-96393000D01*
X132080000Y-96393000D01*
X132080000Y-96393000D01*
X132080000Y-96393000D02*
X132080000Y-96393000D01*
X132080000Y-96393000D01*
X132080000Y-96393000D01*
X132080000Y-96393000D01*
X132080000Y-96393000D01*
X132080000Y-96393000D01*
X132080000Y-96393000D01*
X132080000Y-96393000D01*
X132080000Y-96393000D01*
X132080000Y-96393000D01*
X132080000Y-96393000D01*
X132080000Y-96393000D01*
X132080000Y-96393000D01*
X132080000Y-96393000D01*
X132080000Y-96393000D01*
X132080000Y-96393000D01*
X132080000Y-96393000D01*
X132080000Y-96393000D01*
X132080000Y-96393000D01*
X132080000Y-96393000D01*
X132080000Y-96393000D01*
X132080000Y-96393000D01*
X132080000Y-96393000D01*
X132080000Y-96393000D01*
X132080000Y-96393000D01*
X132080000Y-96393000D01*
X132080000Y-96393000D01*
X132080000Y-96393000D01*
X132080000Y-96393000D01*
X132080000Y-96393000D01*
X132080000Y-96393000D01*
D14*
D13*
X131826000Y-98679000D02*
X131826000Y-98679000D01*
X131826000Y-98679000D01*
X131826000Y-98679000D01*
X131826000Y-98679000D01*
X131826000Y-98679000D01*
X131826000Y-98679000D01*
X131826000Y-98679000D01*
X131826000Y-98679000D01*
X131826000Y-98679000D01*
X131826000Y-98679000D01*
X131826000Y-98679000D01*
X131826000Y-98679000D01*
X131826000Y-98679000D01*
X131826000Y-98679000D01*
X131826000Y-98679000D01*
X131826000Y-98679000D02*
X131826000Y-98679000D01*
X131826000Y-98679000D02*
X131826000Y-98679000D01*
X131826000Y-98679000D01*
X131826000Y-98679000D01*
X131826000Y-98679000D01*
X131826000Y-98679000D02*
X131826000Y-98679000D01*
X131826000Y-98679000D01*
D14*
D13*
X130683000Y-98679000D02*
X130683000Y-98679000D01*
X130683000Y-98679000D01*
X130683000Y-98679000D01*
X130683000Y-98679000D01*
X130683000Y-98679000D01*
X130683000Y-98679000D01*
X130683000Y-98679000D01*
X130683000Y-98679000D01*
X130683000Y-98679000D01*
X130683000Y-98679000D01*
X130683000Y-98679000D01*
X130683000Y-98679000D01*
X130683000Y-98679000D01*
X130683000Y-98679000D01*
X130683000Y-98679000D01*
X130683000Y-98679000D02*
X130683000Y-98679000D01*
X130683000Y-98679000D02*
X130683000Y-98679000D01*
X130683000Y-98679000D01*
X130683000Y-98679000D01*
X130683000Y-98679000D01*
X130683000Y-98679000D02*
X130683000Y-98679000D01*
X130683000Y-98679000D01*
X130683000Y-98679000D01*
X130683000Y-98679000D01*
X130683000Y-98679000D01*
X130683000Y-98679000D01*
X130683000Y-98679000D01*
X130683000Y-98679000D01*
X130683000Y-98679000D01*
X130683000Y-98679000D01*
X130683000Y-98679000D01*
X130683000Y-98679000D01*
X130683000Y-98679000D01*
X130683000Y-98679000D01*
X130683000Y-98679000D01*
X130683000Y-98679000D01*
X130683000Y-98679000D01*
X130683000Y-98679000D01*
X130683000Y-98679000D01*
X130683000Y-98679000D01*
X130683000Y-98679000D01*
D14*
D13*
X130429000Y-102870000D02*
X130429000Y-102870000D01*
X130429000Y-102870000D01*
X130429000Y-102870000D01*
X130429000Y-102870000D01*
X130429000Y-102870000D01*
X130429000Y-102870000D01*
X130429000Y-102870000D01*
X130429000Y-102870000D01*
X130429000Y-102870000D01*
X130429000Y-102870000D01*
X130429000Y-102870000D01*
X130429000Y-102870000D01*
X130429000Y-102870000D01*
X130429000Y-102870000D01*
X130429000Y-102870000D01*
X130429000Y-102870000D02*
X130429000Y-102870000D01*
X130429000Y-102870000D02*
X130429000Y-102870000D01*
X130429000Y-102870000D01*
X130429000Y-102870000D01*
X130429000Y-102870000D01*
X130429000Y-102870000D02*
X130429000Y-102870000D01*
X130429000Y-102870000D01*
X130429000Y-102870000D01*
X130429000Y-102870000D01*
X130429000Y-102870000D01*
X130429000Y-102870000D01*
X130429000Y-102870000D01*
X130429000Y-102870000D01*
X130429000Y-102870000D01*
X130429000Y-102870000D01*
X130429000Y-102870000D01*
X130429000Y-102870000D01*
X130429000Y-102870000D01*
X130429000Y-102870000D01*
X130429000Y-102870000D01*
D14*
D13*
X129286000Y-102870000D02*
X129286000Y-102870000D01*
X129286000Y-102870000D01*
X129286000Y-102870000D01*
X129286000Y-102870000D01*
X129286000Y-102870000D01*
X129286000Y-102870000D01*
X129286000Y-102870000D01*
X129286000Y-102870000D01*
X129286000Y-102870000D01*
X129286000Y-102870000D01*
X129286000Y-102870000D01*
X129286000Y-102870000D01*
X129286000Y-102870000D01*
X129286000Y-102870000D01*
X129286000Y-102870000D01*
X129286000Y-102870000D02*
X129286000Y-102870000D01*
X129286000Y-102870000D02*
X129286000Y-102870000D01*
X129286000Y-102870000D01*
X129286000Y-102870000D01*
X129286000Y-102870000D01*
X129286000Y-102870000D02*
X129286000Y-102870000D01*
X129286000Y-102870000D02*
X129286000Y-102870000D01*
X129286000Y-102870000D01*
D14*
D13*
X133477000Y-105029000D02*
X133477000Y-105029000D01*
X133477000Y-105029000D01*
X133477000Y-105029000D01*
X133477000Y-105029000D01*
X133477000Y-105029000D01*
X133477000Y-105029000D01*
X133477000Y-105029000D01*
X133477000Y-105029000D01*
X133477000Y-105029000D01*
X133477000Y-105029000D01*
X133477000Y-105029000D01*
X133477000Y-105029000D01*
X133477000Y-105029000D01*
X133477000Y-105029000D01*
X133477000Y-105029000D01*
X133477000Y-105029000D02*
X133477000Y-105029000D01*
X133477000Y-105029000D02*
X133477000Y-105029000D01*
X133477000Y-105029000D01*
X133477000Y-105029000D01*
X133477000Y-105029000D01*
X133477000Y-105029000D02*
X133477000Y-105029000D01*
X133477000Y-105029000D01*
X133477000Y-105029000D01*
X133477000Y-105029000D01*
X133477000Y-105029000D01*
X133477000Y-105029000D01*
X133477000Y-105029000D01*
X133477000Y-105029000D01*
X133477000Y-105029000D01*
X133477000Y-105029000D01*
X133477000Y-105029000D01*
X133477000Y-105029000D01*
X133477000Y-105029000D01*
D14*
D13*
X137922000Y-99441000D02*
X137922000Y-99441000D01*
X137922000Y-99441000D01*
X137922000Y-99441000D01*
X137922000Y-99441000D01*
X137922000Y-99441000D01*
X137922000Y-99441000D01*
X137922000Y-99441000D01*
X137922000Y-99441000D01*
X137922000Y-99441000D01*
X137922000Y-99441000D01*
X137922000Y-99441000D01*
X137922000Y-99441000D01*
X137922000Y-99441000D01*
X137922000Y-99441000D01*
X137922000Y-99441000D01*
X137922000Y-99441000D02*
X137922000Y-99441000D01*
X137922000Y-99441000D02*
X137922000Y-99441000D01*
X137922000Y-99441000D01*
X137922000Y-99441000D01*
X137922000Y-99441000D01*
X137922000Y-99441000D02*
X137922000Y-99441000D01*
X137922000Y-99441000D01*
X137922000Y-99441000D01*
X137922000Y-99441000D01*
X137922000Y-99441000D01*
X137922000Y-99441000D01*
X137922000Y-99441000D01*
X137922000Y-99441000D01*
X137922000Y-99441000D01*
X137922000Y-99441000D01*
D14*
D13*
X136779000Y-99441000D02*
X136779000Y-99441000D01*
X136779000Y-99441000D01*
X136779000Y-99441000D01*
X136779000Y-99441000D01*
X136779000Y-99441000D01*
X136779000Y-99441000D01*
X136779000Y-99441000D01*
X136779000Y-99441000D01*
X136779000Y-99441000D01*
X136779000Y-99441000D01*
X136779000Y-99441000D01*
X136779000Y-99441000D01*
X136779000Y-99441000D01*
X136779000Y-99441000D01*
X136779000Y-99441000D01*
X136779000Y-99441000D02*
X136779000Y-99441000D01*
X136779000Y-99441000D02*
X136779000Y-99441000D01*
X136779000Y-99441000D01*
X136779000Y-99441000D01*
X136779000Y-99441000D01*
X136779000Y-99441000D02*
X136779000Y-99441000D01*
X136779000Y-99441000D02*
X136779000Y-99441000D01*
X136779000Y-99441000D01*
X136779000Y-99441000D01*
X136779000Y-99441000D01*
D14*
D13*
X133477000Y-103886000D02*
X133477000Y-103886000D01*
X133477000Y-103886000D01*
X133477000Y-103886000D01*
X133477000Y-103886000D01*
X133477000Y-103886000D01*
X133477000Y-103886000D01*
X133477000Y-103886000D01*
X133477000Y-103886000D01*
X133477000Y-103886000D01*
X133477000Y-103886000D01*
X133477000Y-103886000D01*
X133477000Y-103886000D01*
X133477000Y-103886000D01*
X133477000Y-103886000D01*
X133477000Y-103886000D01*
X133477000Y-103886000D02*
X133477000Y-103886000D01*
X133477000Y-103886000D02*
X133477000Y-103886000D01*
X133477000Y-103886000D01*
X133477000Y-103886000D01*
X133477000Y-103886000D01*
X133477000Y-103886000D02*
X133477000Y-103886000D01*
X133477000Y-103886000D01*
X133477000Y-103886000D01*
X133477000Y-103886000D01*
X133477000Y-103886000D01*
X133477000Y-103886000D01*
X133477000Y-103886000D01*
X133477000Y-103886000D01*
X133477000Y-103886000D01*
X133477000Y-103886000D01*
X133477000Y-103886000D01*
X133477000Y-103886000D01*
X133477000Y-103886000D01*
X133477000Y-103886000D01*
X133477000Y-103886000D01*
X133477000Y-103886000D01*
X133477000Y-103886000D01*
X133477000Y-103886000D01*
X133477000Y-103886000D01*
X133477000Y-103886000D01*
D14*
D13*
X133858000Y-103632000D02*
X133858000Y-103632000D01*
X133858000Y-103632000D01*
X133858000Y-103632000D01*
X133858000Y-103632000D01*
X133858000Y-103632000D01*
X133858000Y-103632000D01*
X133858000Y-103632000D01*
X133858000Y-103632000D01*
X133858000Y-103632000D01*
X133858000Y-103632000D01*
X133858000Y-103632000D01*
X133858000Y-103632000D01*
X133858000Y-103632000D01*
X133858000Y-103632000D01*
X133858000Y-103632000D01*
X133858000Y-103632000D02*
X133858000Y-103632000D01*
X133858000Y-103632000D01*
X133858000Y-103632000D01*
X133858000Y-103632000D01*
X133858000Y-103632000D01*
X133858000Y-103632000D01*
X133858000Y-103632000D01*
X133858000Y-103632000D01*
X133858000Y-103632000D01*
X133858000Y-103632000D01*
X133858000Y-103632000D01*
X133858000Y-103632000D01*
X133858000Y-103632000D01*
X133858000Y-103632000D01*
X133858000Y-103632000D01*
X133858000Y-103632000D01*
X133858000Y-103632000D01*
X133858000Y-103632000D01*
X133858000Y-103632000D01*
X133858000Y-103632000D01*
X133858000Y-103632000D01*
D14*
D13*
X136144000Y-110109000D02*
X136144000Y-110109000D01*
X136144000Y-110109000D01*
X136144000Y-110109000D01*
X136144000Y-110109000D01*
X136144000Y-110109000D01*
X136144000Y-110109000D01*
X136144000Y-110109000D01*
X136144000Y-110109000D01*
X136144000Y-110109000D01*
X136144000Y-110109000D01*
X136144000Y-110109000D01*
X136144000Y-110109000D01*
X136144000Y-110109000D01*
X136144000Y-110109000D01*
X136144000Y-110109000D01*
X136144000Y-110109000D02*
X136144000Y-110109000D01*
X136144000Y-110109000D01*
X136144000Y-110109000D01*
X136144000Y-110109000D01*
X136144000Y-110109000D01*
X136144000Y-110109000D01*
X136144000Y-110109000D01*
X136144000Y-110109000D01*
X136144000Y-110109000D01*
X136144000Y-110109000D01*
X136144000Y-110109000D01*
X136144000Y-110109000D01*
X136144000Y-110109000D01*
X136144000Y-110109000D01*
X136144000Y-110109000D01*
X136144000Y-110109000D01*
X136144000Y-110109000D01*
X136144000Y-110109000D01*
X136144000Y-110109000D01*
X136144000Y-110109000D01*
X136144000Y-110109000D01*
X136144000Y-110109000D01*
X136144000Y-110109000D01*
X136144000Y-110109000D01*
X136144000Y-110109000D01*
X136144000Y-110109000D01*
X136144000Y-110109000D01*
X136144000Y-110109000D01*
X136144000Y-110109000D01*
X136144000Y-110109000D01*
X136144000Y-110109000D01*
D14*
D13*
X135763000Y-101727000D02*
X135763000Y-101727000D01*
X135763000Y-101727000D01*
X135763000Y-101727000D01*
X135763000Y-101727000D01*
X135763000Y-101727000D01*
X135763000Y-101727000D01*
X135763000Y-101727000D01*
X135763000Y-101727000D01*
X135763000Y-101727000D01*
X135763000Y-101727000D01*
X135763000Y-101727000D01*
X135763000Y-101727000D01*
X135763000Y-101727000D01*
X135763000Y-101727000D01*
X135763000Y-101727000D01*
X135763000Y-101727000D02*
X135763000Y-101727000D01*
X135763000Y-101727000D01*
D14*
D13*
X134620000Y-101727000D02*
X134620000Y-101727000D01*
X134620000Y-101727000D01*
X134620000Y-101727000D01*
X134620000Y-101727000D01*
X134620000Y-101727000D01*
X134620000Y-101727000D01*
X134620000Y-101727000D01*
X134620000Y-101727000D01*
X134620000Y-101727000D01*
X134620000Y-101727000D01*
X134620000Y-101727000D01*
X134620000Y-101727000D01*
X134620000Y-101727000D01*
X134620000Y-101727000D01*
X134620000Y-101727000D01*
X134620000Y-101727000D02*
X134620000Y-101727000D01*
X134620000Y-101727000D01*
X134620000Y-101727000D01*
X134620000Y-101727000D01*
X134620000Y-101727000D01*
X134620000Y-101727000D01*
X134620000Y-101727000D01*
X134620000Y-101727000D01*
X134620000Y-101727000D01*
X134620000Y-101727000D01*
X134620000Y-101727000D01*
X134620000Y-101727000D01*
X134620000Y-101727000D01*
X134620000Y-101727000D01*
X134620000Y-101727000D01*
X134620000Y-101727000D01*
X134620000Y-101727000D01*
X134620000Y-101727000D01*
X134620000Y-101727000D01*
X134620000Y-101727000D01*
X134620000Y-101727000D01*
D14*
D13*
X139319000Y-93345000D02*
X139319000Y-93345000D01*
X139319000Y-93345000D01*
X139319000Y-93345000D01*
X139319000Y-93345000D01*
X139319000Y-93345000D01*
X139319000Y-93345000D01*
X139319000Y-93345000D01*
X139319000Y-93345000D01*
X139319000Y-93345000D01*
X139319000Y-93345000D01*
X139319000Y-93345000D01*
X139319000Y-93345000D01*
X139319000Y-93345000D01*
X139319000Y-93345000D01*
X139319000Y-93345000D01*
X139319000Y-93345000D02*
X139319000Y-93345000D01*
X139319000Y-93345000D01*
X139319000Y-93345000D01*
X139319000Y-93345000D01*
X139319000Y-93345000D01*
X139319000Y-93345000D01*
X139319000Y-93345000D01*
X139319000Y-93345000D01*
X139319000Y-93345000D01*
X139319000Y-93345000D01*
X139319000Y-93345000D01*
X139319000Y-93345000D01*
X139319000Y-93345000D01*
D14*
D13*
X136144000Y-89027000D02*
X136144000Y-89027000D01*
X136144000Y-89027000D01*
X136144000Y-89027000D01*
X136144000Y-89027000D01*
X136144000Y-89027000D01*
X136144000Y-89027000D01*
X136144000Y-89027000D01*
X136144000Y-89027000D01*
X136144000Y-89027000D01*
X136144000Y-89027000D01*
X136144000Y-89027000D01*
X136144000Y-89027000D01*
X136144000Y-89027000D01*
X136144000Y-89027000D01*
X136144000Y-89027000D01*
X136144000Y-89027000D02*
X136144000Y-89027000D01*
X136144000Y-89027000D02*
X136144000Y-89027000D01*
X136144000Y-89027000D01*
X136144000Y-89027000D01*
X136144000Y-89027000D01*
D14*
D13*
X134112000Y-108077000D02*
X134112000Y-108077000D01*
X134112000Y-108077000D01*
X134112000Y-108077000D01*
X134112000Y-108077000D01*
X134112000Y-108077000D01*
X134112000Y-108077000D01*
X134112000Y-108077000D01*
X134112000Y-108077000D01*
X134112000Y-108077000D01*
X134112000Y-108077000D01*
X134112000Y-108077000D01*
X134112000Y-108077000D01*
X134112000Y-108077000D01*
X134112000Y-108077000D01*
X134112000Y-108077000D01*
X134112000Y-108077000D02*
X134112000Y-108077000D01*
X134112000Y-108077000D01*
X134112000Y-108077000D01*
X134112000Y-108077000D01*
X134112000Y-108077000D01*
X134112000Y-108077000D01*
X134112000Y-108077000D01*
X134112000Y-108077000D01*
X134112000Y-108077000D01*
X134112000Y-108077000D01*
X134112000Y-108077000D02*
X134112000Y-108077000D01*
X134112000Y-108077000D01*
X134112000Y-108077000D01*
X134112000Y-108077000D01*
X134112000Y-108077000D01*
X134112000Y-108077000D01*
X134112000Y-108077000D01*
X134112000Y-108077000D01*
X134112000Y-108077000D01*
X134112000Y-108077000D01*
X134112000Y-108077000D01*
X134112000Y-108077000D01*
X134112000Y-108077000D01*
X134112000Y-108077000D01*
X134112000Y-108077000D01*
X134112000Y-108077000D01*
X134112000Y-108077000D01*
X134112000Y-108077000D01*
X134112000Y-108077000D01*
X134112000Y-108077000D01*
D14*
D13*
X135636000Y-88773000D02*
X135636000Y-88773000D01*
X135636000Y-88773000D01*
X135636000Y-88773000D01*
X135636000Y-88773000D01*
X135636000Y-88773000D01*
X135636000Y-88773000D01*
X135636000Y-88773000D01*
X135636000Y-88773000D01*
X135636000Y-88773000D01*
X135636000Y-88773000D01*
X135636000Y-88773000D01*
X135636000Y-88773000D01*
X135636000Y-88773000D01*
X135636000Y-88773000D01*
X135636000Y-88773000D01*
X135636000Y-88773000D02*
X135636000Y-88773000D01*
X135636000Y-88773000D01*
X135636000Y-88773000D01*
X135636000Y-88773000D01*
X135636000Y-88773000D01*
X135636000Y-88773000D01*
X135636000Y-88773000D01*
X135636000Y-88773000D01*
X135636000Y-88773000D01*
X135636000Y-88773000D01*
D14*
D13*
X135636000Y-88773000D02*
X135636000Y-88773000D01*
X135636000Y-88773000D01*
X135636000Y-88773000D02*
X135636000Y-88773000D01*
X135636000Y-88773000D02*
X135636000Y-88773000D01*
X135636000Y-88773000D01*
X135636000Y-88773000D01*
X135636000Y-88773000D01*
D14*
D13*
X131445000Y-90123000D02*
X131445000Y-90123000D01*
X131445000Y-90123000D02*
X131445000Y-90123000D01*
X131445000Y-90123000D01*
X131445000Y-90123000D01*
X131445000Y-90123000D01*
X131445000Y-90123000D01*
X131445000Y-90123000D01*
X131445000Y-90123000D01*
X131445000Y-90123000D01*
X131445000Y-90123000D01*
X131445000Y-90123000D01*
X131445000Y-90123000D02*
X131445000Y-90123000D01*
X131445000Y-90123000D02*
X131445000Y-90123000D01*
X131445000Y-90123000D01*
X131445000Y-90123000D01*
X131445000Y-90123000D01*
D14*
D13*
X131500000Y-88744000D02*
X131500000Y-88744000D01*
X131500000Y-88744000D02*
X131500000Y-88744000D01*
X131500000Y-88744000D01*
X131500000Y-88744000D01*
X131500000Y-88744000D01*
X131500000Y-88744000D01*
X131500000Y-88744000D01*
X131500000Y-88744000D01*
X131500000Y-88744000D01*
X131500000Y-88744000D01*
X131500000Y-88744000D01*
X131500000Y-88744000D02*
X131500000Y-88744000D01*
X131500000Y-88744000D01*
X131500000Y-88744000D01*
X131500000Y-88744000D01*
X131500000Y-88744000D01*
X131500000Y-88744000D01*
X131500000Y-88744000D01*
X131500000Y-88744000D01*
X131500000Y-88744000D01*
X131500000Y-88744000D01*
D14*
D13*
X135200000Y-88744000D02*
X135200000Y-88744000D01*
X135200000Y-88744000D02*
X135200000Y-88744000D01*
X135200000Y-88744000D01*
X135200000Y-88744000D01*
X135200000Y-88744000D01*
X135200000Y-88744000D01*
X135200000Y-88744000D01*
X135200000Y-88744000D01*
X135200000Y-88744000D01*
X135200000Y-88744000D01*
X135200000Y-88744000D01*
X135200000Y-88744000D02*
X135200000Y-88744000D01*
X135200000Y-88744000D01*
X135200000Y-88744000D01*
X135200000Y-88744000D01*
X135200000Y-88744000D01*
X135200000Y-88744000D01*
X135200000Y-88744000D01*
X135200000Y-88744000D01*
X135200000Y-88744000D01*
X135200000Y-88744000D01*
X135200000Y-88744000D01*
X135200000Y-88744000D01*
X135200000Y-88744000D01*
D14*
D13*
X130890000Y-100584000D02*
X130890000Y-100584000D01*
X130890000Y-100584000D02*
X130890000Y-100584000D01*
X130890000Y-100584000D01*
X130890000Y-100584000D01*
X130890000Y-100584000D01*
X130890000Y-100584000D01*
X130890000Y-100584000D01*
X130890000Y-100584000D01*
X130890000Y-100584000D01*
X130890000Y-100584000D01*
X130890000Y-100584000D01*
X130890000Y-100584000D02*
X130890000Y-100584000D01*
X130890000Y-100584000D02*
X130890000Y-100584000D01*
X130890000Y-100584000D01*
D14*
D13*
X138256000Y-115697000D02*
X138256000Y-115697000D01*
X138256000Y-115697000D02*
X138256000Y-115697000D01*
X138256000Y-115697000D01*
X138256000Y-115697000D01*
X138256000Y-115697000D01*
X138256000Y-115697000D01*
X138256000Y-115697000D01*
X138256000Y-115697000D01*
X138256000Y-115697000D01*
X138256000Y-115697000D01*
X138256000Y-115697000D01*
X138256000Y-115697000D02*
X138256000Y-115697000D01*
X138256000Y-115697000D01*
X138256000Y-115697000D01*
X138256000Y-115697000D01*
X138256000Y-115697000D01*
X138256000Y-115697000D01*
X138256000Y-115697000D01*
X138256000Y-115697000D01*
X138256000Y-115697000D01*
X138256000Y-115697000D01*
X138256000Y-115697000D01*
X138256000Y-115697000D01*
X138256000Y-115697000D01*
X138256000Y-115697000D01*
X138256000Y-115697000D01*
D14*
D13*
X138510000Y-111506000D02*
X138510000Y-111506000D01*
X138510000Y-111506000D02*
X138510000Y-111506000D01*
X138510000Y-111506000D01*
X138510000Y-111506000D01*
X138510000Y-111506000D01*
X138510000Y-111506000D01*
X138510000Y-111506000D01*
X138510000Y-111506000D01*
X138510000Y-111506000D01*
X138510000Y-111506000D01*
X138510000Y-111506000D01*
X138510000Y-111506000D02*
X138510000Y-111506000D01*
X138510000Y-111506000D01*
X138510000Y-111506000D01*
X138510000Y-111506000D01*
X138510000Y-111506000D01*
X138510000Y-111506000D01*
X138510000Y-111506000D01*
X138510000Y-111506000D01*
X138510000Y-111506000D01*
X138510000Y-111506000D01*
X138510000Y-111506000D01*
X138510000Y-111506000D01*
X138510000Y-111506000D01*
X138510000Y-111506000D01*
X138510000Y-111506000D01*
X138510000Y-111506000D01*
X138510000Y-111506000D01*
X138510000Y-111506000D01*
X138510000Y-111506000D01*
X138510000Y-111506000D01*
X138510000Y-111506000D01*
D14*
D13*
X129286000Y-107870000D02*
X129286000Y-107870000D01*
X129286000Y-107870000D02*
X129286000Y-107870000D01*
X129286000Y-107870000D01*
X129286000Y-107870000D01*
X129286000Y-107870000D01*
X129286000Y-107870000D01*
X129286000Y-107870000D01*
X129286000Y-107870000D01*
X129286000Y-107870000D01*
X129286000Y-107870000D01*
X129286000Y-107870000D01*
X129286000Y-107870000D02*
X129286000Y-107870000D01*
X129286000Y-107870000D01*
D14*
D13*
X129725000Y-112569000D02*
X129725000Y-112569000D01*
X129725000Y-112569000D02*
X129725000Y-112569000D01*
X129725000Y-112569000D01*
X129725000Y-112569000D01*
X129725000Y-112569000D01*
X129725000Y-112569000D01*
X129725000Y-112569000D01*
X129725000Y-112569000D01*
X129725000Y-112569000D01*
X129725000Y-112569000D01*
X129725000Y-112569000D01*
X129725000Y-112569000D02*
X129725000Y-112569000D01*
X129725000Y-112569000D01*
X129725000Y-112569000D01*
X129725000Y-112569000D01*
X129725000Y-112569000D01*
X129725000Y-112569000D01*
X129725000Y-112569000D01*
X129725000Y-112569000D01*
X129725000Y-112569000D01*
X129725000Y-112569000D01*
X129725000Y-112569000D01*
X129725000Y-112569000D01*
X129725000Y-112569000D01*
X129725000Y-112569000D01*
X129725000Y-112569000D01*
X129725000Y-112569000D01*
X129725000Y-112569000D01*
X129725000Y-112569000D01*
X129725000Y-112569000D01*
X129725000Y-112569000D01*
X129725000Y-112569000D01*
X129725000Y-112569000D01*
X129725000Y-112569000D01*
X129725000Y-112569000D01*
X129725000Y-112569000D01*
X129725000Y-112569000D01*
X129725000Y-112569000D01*
X129725000Y-112569000D01*
X129725000Y-112569000D01*
X129725000Y-112569000D01*
X129725000Y-112569000D01*
D14*
D13*
X136754000Y-102543000D02*
X136754000Y-102543000D01*
X136754000Y-102543000D01*
X136754000Y-102543000D01*
X136754000Y-102543000D01*
X136754000Y-102543000D01*
X136754000Y-102543000D01*
X136754000Y-102543000D01*
X136754000Y-102543000D01*
X136754000Y-102543000D01*
X136754000Y-102543000D02*
X136754000Y-102543000D01*
X136754000Y-102543000D01*
X136754000Y-102543000D01*
X136754000Y-102543000D01*
X136754000Y-102543000D01*
X136754000Y-102543000D01*
X136754000Y-102543000D01*
X136754000Y-102543000D01*
X136754000Y-102543000D01*
X136754000Y-102543000D01*
X136754000Y-102543000D01*
X136754000Y-102543000D01*
X136754000Y-102543000D01*
D14*
D13*
X135788000Y-95958000D02*
X135788000Y-95958000D01*
X135788000Y-95958000D01*
X135788000Y-95958000D01*
X135788000Y-95958000D01*
X135788000Y-95958000D01*
X135788000Y-95958000D01*
X135788000Y-95958000D01*
X135788000Y-95958000D01*
X135788000Y-95958000D01*
X135788000Y-95958000D02*
X135788000Y-95958000D01*
X135788000Y-95958000D01*
X135788000Y-95958000D01*
X135788000Y-95958000D01*
X135788000Y-95958000D01*
X135788000Y-95958000D01*
X135788000Y-95958000D01*
X135788000Y-95958000D01*
X135788000Y-95958000D01*
X135788000Y-95958000D01*
D14*
D13*
X132588000Y-109083000D02*
X132588000Y-109083000D01*
X132588000Y-109083000D01*
X132588000Y-109083000D01*
X132588000Y-109083000D01*
X132588000Y-109083000D01*
X132588000Y-109083000D01*
X132588000Y-109083000D01*
X132588000Y-109083000D01*
X132588000Y-109083000D01*
X132588000Y-109083000D02*
X132588000Y-109083000D01*
X132588000Y-109083000D02*
X132588000Y-109083000D01*
X132588000Y-109083000D01*
D14*
D13*
X133350000Y-88584000D02*
X133350000Y-88584000D01*
X133350000Y-88584000D01*
X133350000Y-88584000D01*
X133350000Y-88584000D01*
X133350000Y-88584000D01*
X133350000Y-88584000D02*
X133350000Y-88584000D01*
X133350000Y-88584000D02*
X133350000Y-88584000D01*
X133350000Y-88584000D01*
X133350000Y-88584000D01*
X133350000Y-88584000D01*
D14*
D13*
X137438637Y-94041535D02*
X137438637Y-94041535D01*
X137438637Y-94041535D01*
X137438637Y-94041535D01*
X137438637Y-94041535D01*
X137438637Y-94041535D01*
X137438637Y-94041535D01*
X137438637Y-94041535D01*
X137438637Y-94041535D01*
X137438637Y-94041535D01*
X137438637Y-94041535D02*
X137438637Y-94041535D01*
X137438637Y-94041535D02*
X137438637Y-94041535D01*
X137438637Y-94041535D01*
X137438637Y-94041535D01*
X137438637Y-94041535D01*
D14*
D13*
X131243887Y-100538155D02*
X131243887Y-100538155D01*
X131243887Y-100538155D01*
X131243887Y-100538155D02*
X131243887Y-100538155D01*
X131243887Y-100538155D01*
X131243887Y-100538155D01*
X131243887Y-100538155D01*
X131243887Y-100538155D01*
X131243887Y-100538155D02*
X131243887Y-100538155D01*
X131243887Y-100538155D01*
X131243887Y-100538155D01*
X131243887Y-100538155D01*
X131243887Y-100538155D01*
X131243887Y-100538155D01*
X131243887Y-100538155D01*
X131243887Y-100538155D01*
X131243887Y-100538155D01*
X131243887Y-100538155D02*
X131243887Y-100538155D01*
X131243887Y-100538155D02*
X131243887Y-100538155D01*
X131243887Y-100538155D01*
X131243887Y-100538155D01*
X131243887Y-100538155D01*
X131243887Y-100538155D02*
X131243887Y-100538155D01*
X131243887Y-100538155D02*
X131243887Y-100538155D01*
X131243887Y-100538155D01*
X131243887Y-100538155D01*
X131243887Y-100538155D01*
X131243887Y-100538155D02*
X131243887Y-100538155D01*
X131243887Y-100538155D02*
X131243887Y-100538155D01*
X131243887Y-100538155D01*
X131243887Y-100538155D01*
X131243887Y-100538155D01*
X131243887Y-100538155D01*
X131243887Y-100538155D02*
X131243887Y-100538155D01*
X131243887Y-100538155D01*
X131243887Y-100538155D01*
X131243887Y-100538155D01*
X131243887Y-100538155D01*
X131243887Y-100538155D01*
X131243887Y-100538155D01*
X131243887Y-100538155D01*
X131243887Y-100538155D01*
X131243887Y-100538155D01*
X131243887Y-100538155D01*
X131243887Y-100538155D02*
X131243887Y-100538155D01*
X131243887Y-100538155D01*
X131243887Y-100538155D01*
X131243887Y-100538155D01*
X131243887Y-100538155D01*
X131243887Y-100538155D01*
X131243887Y-100538155D01*
X131243887Y-100538155D01*
X131243887Y-100538155D01*
X131243887Y-100538155D01*
X131243887Y-100538155D01*
X131243887Y-100538155D01*
X131243887Y-100538155D02*
X131243887Y-100538155D01*
X131243887Y-100538155D02*
X131243887Y-100538155D01*
X131243887Y-100538155D02*
X131243887Y-100538155D01*
X131243887Y-100538155D01*
X131243887Y-100538155D01*
X131243887Y-100538155D01*
X131243887Y-100538155D01*
X131243887Y-100538155D02*
X131243887Y-100538155D01*
X131243887Y-100538155D01*
X131243887Y-100538155D01*
X131243887Y-100538155D01*
X131243887Y-100538155D01*
X131243887Y-100538155D01*
X131243887Y-100538155D01*
X131243887Y-100538155D01*
X131243887Y-100538155D01*
X131243887Y-100538155D01*
X131243887Y-100538155D01*
X131243887Y-100538155D01*
X131243887Y-100538155D01*
X131243887Y-100538155D01*
X131243887Y-100538155D01*
X131243887Y-100538155D02*
X131243887Y-100538155D01*
X131243887Y-100538155D02*
X131243887Y-100538155D01*
X131243887Y-100538155D01*
X131243887Y-100538155D01*
X131243887Y-100538155D02*
X131243887Y-100538155D01*
X131243887Y-100538155D02*
X131243887Y-100538155D01*
X131243887Y-100538155D02*
X131243887Y-100538155D01*
X131243887Y-100538155D01*
X131243887Y-100538155D02*
X131243887Y-100538155D01*
X131243887Y-100538155D01*
X131243887Y-100538155D01*
X131243887Y-100538155D01*
X131243887Y-100538155D01*
X131243887Y-100538155D01*
X131243887Y-100538155D01*
X131243887Y-100538155D01*
X131243887Y-100538155D01*
X131243887Y-100538155D01*
X131243887Y-100538155D02*
X131243887Y-100538155D01*
X131243887Y-100538155D01*
X131243887Y-100538155D01*
X131243887Y-100538155D01*
X131243887Y-100538155D01*
X131243887Y-100538155D01*
X131243887Y-100538155D01*
X131243887Y-100538155D01*
X131243887Y-100538155D01*
X131243887Y-100538155D01*
X131243887Y-100538155D01*
X131243887Y-100538155D01*
X131243887Y-100538155D01*
X131243887Y-100538155D01*
X131243887Y-100538155D01*
X131243887Y-100538155D01*
X131243887Y-100538155D02*
X131243887Y-100538155D01*
X131243887Y-100538155D02*
X131243887Y-100538155D01*
X131243887Y-100538155D01*
X131243887Y-100538155D02*
X131243887Y-100538155D01*
X131243887Y-100538155D02*
X131243887Y-100538155D01*
X131243887Y-100538155D02*
X131243887Y-100538155D01*
X131243887Y-100538155D01*
X131243887Y-100538155D01*
X131243887Y-100538155D01*
X131243887Y-100538155D01*
X131243887Y-100538155D02*
X131243887Y-100538155D01*
X131243887Y-100538155D01*
X131243887Y-100538155D01*
X131243887Y-100538155D01*
X131243887Y-100538155D01*
X131243887Y-100538155D01*
X131243887Y-100538155D01*
X131243887Y-100538155D01*
X131243887Y-100538155D01*
X131243887Y-100538155D01*
X131243887Y-100538155D01*
X131243887Y-100538155D01*
X131243887Y-100538155D01*
X131243887Y-100538155D01*
X131243887Y-100538155D01*
X131243887Y-100538155D02*
X131243887Y-100538155D01*
X131243887Y-100538155D02*
X131243887Y-100538155D01*
X131243887Y-100538155D01*
X131243887Y-100538155D01*
X131243887Y-100538155D02*
X131243887Y-100538155D01*
X131243887Y-100538155D02*
X131243887Y-100538155D01*
X131243887Y-100538155D01*
X131243887Y-100538155D02*
X131243887Y-100538155D01*
X131243887Y-100538155D01*
X131243887Y-100538155D01*
X131243887Y-100538155D01*
X131243887Y-100538155D01*
X131243887Y-100538155D01*
X131243887Y-100538155D01*
X131243887Y-100538155D01*
X131243887Y-100538155D01*
X131243887Y-100538155D01*
X131243887Y-100538155D01*
X131243887Y-100538155D01*
X131243887Y-100538155D01*
X131243887Y-100538155D01*
X131243887Y-100538155D01*
X131243887Y-100538155D01*
X131243887Y-100538155D01*
X131243887Y-100538155D01*
X131243887Y-100538155D01*
X131243887Y-100538155D01*
X131243887Y-100538155D02*
X131243887Y-100538155D01*
X131243887Y-100538155D02*
X131243887Y-100538155D01*
X131243887Y-100538155D01*
X131243887Y-100538155D02*
X131243887Y-100538155D01*
X131243887Y-100538155D01*
X131243887Y-100538155D01*
X131243887Y-100538155D01*
X131243887Y-100538155D02*
X131243887Y-100538155D01*
X131243887Y-100538155D02*
X131243887Y-100538155D01*
X131243887Y-100538155D01*
X131243887Y-100538155D02*
X131243887Y-100538155D01*
X131243887Y-100538155D02*
X131243887Y-100538155D01*
X131243887Y-100538155D02*
X131243887Y-100538155D01*
X131243887Y-100538155D02*
X131243887Y-100538155D01*
X131243887Y-100538155D02*
X131243887Y-100538155D01*
X131243887Y-100538155D01*
X131243887Y-100538155D01*
X131243887Y-100538155D01*
X131243887Y-100538155D01*
X131243887Y-100538155D01*
X131243887Y-100538155D01*
X131243887Y-100538155D01*
X131243887Y-100538155D01*
X131243887Y-100538155D01*
X131243887Y-100538155D01*
X131243887Y-100538155D01*
X131243887Y-100538155D01*
X131243887Y-100538155D01*
X131243887Y-100538155D01*
X131243887Y-100538155D02*
X131243887Y-100538155D01*
X131243887Y-100538155D01*
X131243887Y-100538155D01*
X131243887Y-100538155D01*
X131243887Y-100538155D02*
X131243887Y-100538155D01*
X131243887Y-100538155D02*
X131243887Y-100538155D01*
X131243887Y-100538155D01*
X131243887Y-100538155D02*
X131243887Y-100538155D01*
X131243887Y-100538155D01*
X131243887Y-100538155D01*
X131243887Y-100538155D01*
X131243887Y-100538155D01*
X131243887Y-100538155D01*
X131243887Y-100538155D01*
X131243887Y-100538155D01*
X131243887Y-100538155D01*
X131243887Y-100538155D01*
X131243887Y-100538155D01*
X131243887Y-100538155D01*
X131243887Y-100538155D01*
X131243887Y-100538155D01*
X131243887Y-100538155D01*
X131243887Y-100538155D01*
X131243887Y-100538155D01*
X131243887Y-100538155D01*
X131243887Y-100538155D01*
X131243887Y-100538155D01*
X131243887Y-100538155D01*
D14*
M02*
