G04 #@! TF.GenerationSoftware,KiCad,Pcbnew,(5.0.0-rc2-dev-252-gb5f1fdd98)*
G04 #@! TF.CreationDate,2018-04-01T12:07:08-07:00*
G04 #@! TF.ProjectId,smolfpga,736D6F6C667067612E6B696361645F70,rev?*
G04 #@! TF.SameCoordinates,Original*
G04 #@! TF.FileFunction,Soldermask,Top*
G04 #@! TF.FilePolarity,Negative*
%FSLAX46Y46*%
G04 Gerber Fmt 4.6, Leading zero omitted, Abs format (unit mm)*
G04 Created by KiCad (PCBNEW (5.0.0-rc2-dev-252-gb5f1fdd98)) date 04/01/18 12:07:08*
%MOMM*%
%LPD*%
G01*
G04 APERTURE LIST*
%ADD10R,1.400000X1.300000*%
%ADD11R,0.900000X1.000000*%
%ADD12R,1.000000X0.900000*%
%ADD13R,0.900000X1.300000*%
%ADD14R,1.450000X1.050000*%
%ADD15O,2.100000X2.100000*%
%ADD16C,2.100000*%
%ADD17R,0.800000X1.000000*%
%ADD18R,1.000000X0.800000*%
%ADD19R,0.740000X1.190000*%
%ADD20R,1.850000X0.850000*%
%ADD21R,0.800000X1.750000*%
%ADD22C,1.350000*%
%ADD23C,1.950000*%
%ADD24C,0.200000*%
G04 APERTURE END LIST*
D10*
X136164246Y-97408614D03*
X138064246Y-97408614D03*
X138064246Y-95308614D03*
X136164246Y-95308614D03*
D11*
X134874000Y-95843000D03*
X134874000Y-96943000D03*
D12*
X132630000Y-96647000D03*
X131530000Y-96647000D03*
X131530000Y-97663000D03*
X132630000Y-97663000D03*
D11*
X130556000Y-99229000D03*
X130556000Y-98129000D03*
X129413000Y-98129000D03*
X129413000Y-99229000D03*
X131699000Y-102320000D03*
X131699000Y-103420000D03*
X130556000Y-103420000D03*
X130556000Y-102320000D03*
D12*
X134027000Y-103759000D03*
X132927000Y-103759000D03*
D11*
X136652000Y-99991000D03*
X136652000Y-98891000D03*
X135509000Y-98891000D03*
X135509000Y-99991000D03*
D12*
X132927000Y-102616000D03*
X134027000Y-102616000D03*
X133308000Y-104902000D03*
X134408000Y-104902000D03*
X135594000Y-108839000D03*
X136694000Y-108839000D03*
D11*
X137033000Y-102277000D03*
X137033000Y-101177000D03*
X135890000Y-101177000D03*
X135890000Y-102277000D03*
X138049000Y-92795000D03*
X138049000Y-93895000D03*
X137414000Y-88477000D03*
X137414000Y-89577000D03*
D12*
X133562000Y-109347000D03*
X134662000Y-109347000D03*
X136186000Y-90043000D03*
X135086000Y-90043000D03*
D13*
X134886000Y-88773000D03*
X136386000Y-88773000D03*
D14*
X131275000Y-114669000D03*
X135425000Y-114669000D03*
X135425000Y-116819000D03*
X131275000Y-116819000D03*
D15*
X140970000Y-116840000D03*
X140970000Y-114300000D03*
X140970000Y-111760000D03*
X140970000Y-109220000D03*
X140970000Y-106680000D03*
X140970000Y-104140000D03*
X140970000Y-101600000D03*
X140970000Y-99060000D03*
X140970000Y-96520000D03*
X140970000Y-93980000D03*
X140970000Y-91440000D03*
X140970000Y-88900000D03*
X140970000Y-86360000D03*
D16*
X140970000Y-83820000D03*
X125730000Y-83820000D03*
D15*
X125730000Y-86360000D03*
X125730000Y-88900000D03*
X125730000Y-91440000D03*
X125730000Y-93980000D03*
X125730000Y-96520000D03*
X125730000Y-99060000D03*
X125730000Y-101600000D03*
X125730000Y-104140000D03*
X125730000Y-106680000D03*
X125730000Y-109220000D03*
X125730000Y-111760000D03*
X125730000Y-114300000D03*
X125730000Y-116840000D03*
D17*
X131895000Y-88773000D03*
X130995000Y-88773000D03*
D18*
X132850000Y-88294000D03*
X132850000Y-89194000D03*
X133850000Y-88294000D03*
X133850000Y-89194000D03*
X129540000Y-100134000D03*
X129540000Y-101034000D03*
X136906000Y-116147000D03*
X136906000Y-115247000D03*
X137160000Y-111956000D03*
X137160000Y-111056000D03*
D17*
X128836000Y-109220000D03*
X129736000Y-109220000D03*
X130175000Y-113919000D03*
X129275000Y-113919000D03*
D19*
X135829000Y-104568000D03*
X137729000Y-104568000D03*
X137729000Y-107268000D03*
X136779000Y-107268000D03*
X135829000Y-107268000D03*
X136713000Y-91233000D03*
X135763000Y-91233000D03*
X134813000Y-91233000D03*
X134813000Y-93933000D03*
X136713000Y-93933000D03*
D20*
X129638000Y-110658000D03*
X129638000Y-111308000D03*
X129638000Y-111958000D03*
X129638000Y-112608000D03*
X135538000Y-112608000D03*
X135538000Y-111958000D03*
X135538000Y-111308000D03*
X135538000Y-110658000D03*
D21*
X134650000Y-86694000D03*
X134000000Y-86694000D03*
X133350000Y-86694000D03*
X132700000Y-86694000D03*
X132050000Y-86694000D03*
D22*
X135850000Y-86694000D03*
X130850000Y-86694000D03*
D23*
X136850000Y-83994000D03*
X129850000Y-83994000D03*
D24*
X132143887Y-101338155D03*
X132543887Y-101338155D03*
X132943887Y-101338155D03*
X133343887Y-101338155D03*
X133743887Y-101338155D03*
X134143887Y-101338155D03*
X134543887Y-101338155D03*
X132143887Y-100938155D03*
X132543887Y-100938155D03*
X132943887Y-100938155D03*
X133343887Y-100938155D03*
X133743887Y-100938155D03*
X134143887Y-100938155D03*
X134543887Y-100938155D03*
X132143887Y-100538155D03*
X132543887Y-100538155D03*
X132943887Y-100538155D03*
X133343887Y-100538155D03*
X133743887Y-100538155D03*
X134143887Y-100538155D03*
X134543887Y-100538155D03*
X132143887Y-100138155D03*
X132543887Y-100138155D03*
X132943887Y-100138155D03*
X133343887Y-100138155D03*
X133743887Y-100138155D03*
X134143887Y-100138155D03*
X134543887Y-100138155D03*
X132143887Y-99738155D03*
X132543887Y-99738155D03*
X132943887Y-99738155D03*
X133343887Y-99738155D03*
X133743887Y-99738155D03*
X134143887Y-99738155D03*
X134543887Y-99738155D03*
X132143887Y-99338155D03*
X132543887Y-99338155D03*
X132943887Y-99338155D03*
X133343887Y-99338155D03*
X133743887Y-99338155D03*
X134143887Y-99338155D03*
X134543887Y-99338155D03*
X132143887Y-98938155D03*
X132543887Y-98938155D03*
X132943887Y-98938155D03*
X133343887Y-98938155D03*
X133743887Y-98938155D03*
X134143887Y-98938155D03*
X134543887Y-98938155D03*
M02*
