G04 #@! TF.GenerationSoftware,KiCad,Pcbnew,(5.0.0-rc2-dev-252-gb5f1fdd98)*
G04 #@! TF.CreationDate,2018-04-01T12:07:08-07:00*
G04 #@! TF.ProjectId,smolfpga,736D6F6C667067612E6B696361645F70,rev?*
G04 #@! TF.SameCoordinates,Original*
G04 #@! TF.FileFunction,Legend,Bot*
G04 #@! TF.FilePolarity,Positive*
%FSLAX46Y46*%
G04 Gerber Fmt 4.6, Leading zero omitted, Abs format (unit mm)*
G04 Created by KiCad (PCBNEW (5.0.0-rc2-dev-252-gb5f1fdd98)) date 04/01/18 12:07:08*
%MOMM*%
%LPD*%
G01*
G04 APERTURE LIST*
%ADD10C,0.250000*%
G04 APERTURE END LIST*
D10*
X129448214Y-83320000D02*
X129543452Y-83272380D01*
X129686309Y-83272380D01*
X129829166Y-83320000D01*
X129924404Y-83415238D01*
X129972023Y-83510476D01*
X130019642Y-83700952D01*
X130019642Y-83843809D01*
X129972023Y-84034285D01*
X129924404Y-84129523D01*
X129829166Y-84224761D01*
X129686309Y-84272380D01*
X129591071Y-84272380D01*
X129448214Y-84224761D01*
X129400595Y-84177142D01*
X129400595Y-83843809D01*
X129591071Y-83843809D01*
X128972023Y-84272380D02*
X128972023Y-83272380D01*
X128400595Y-84272380D01*
X128400595Y-83272380D01*
X127924404Y-84272380D02*
X127924404Y-83272380D01*
X127686309Y-83272380D01*
X127543452Y-83320000D01*
X127448214Y-83415238D01*
X127400595Y-83510476D01*
X127352976Y-83700952D01*
X127352976Y-83843809D01*
X127400595Y-84034285D01*
X127448214Y-84129523D01*
X127543452Y-84224761D01*
X127686309Y-84272380D01*
X127924404Y-84272380D01*
X133162500Y-85812380D02*
X133162500Y-86621904D01*
X133114880Y-86717142D01*
X133067261Y-86764761D01*
X132972023Y-86812380D01*
X132781547Y-86812380D01*
X132686309Y-86764761D01*
X132638690Y-86717142D01*
X132591071Y-86621904D01*
X132591071Y-85812380D01*
X132162500Y-86764761D02*
X132019642Y-86812380D01*
X131781547Y-86812380D01*
X131686309Y-86764761D01*
X131638690Y-86717142D01*
X131591071Y-86621904D01*
X131591071Y-86526666D01*
X131638690Y-86431428D01*
X131686309Y-86383809D01*
X131781547Y-86336190D01*
X131972023Y-86288571D01*
X132067261Y-86240952D01*
X132114880Y-86193333D01*
X132162500Y-86098095D01*
X132162500Y-86002857D01*
X132114880Y-85907619D01*
X132067261Y-85860000D01*
X131972023Y-85812380D01*
X131733928Y-85812380D01*
X131591071Y-85860000D01*
X130829166Y-86288571D02*
X130686309Y-86336190D01*
X130638690Y-86383809D01*
X130591071Y-86479047D01*
X130591071Y-86621904D01*
X130638690Y-86717142D01*
X130686309Y-86764761D01*
X130781547Y-86812380D01*
X131162500Y-86812380D01*
X131162500Y-85812380D01*
X130829166Y-85812380D01*
X130733928Y-85860000D01*
X130686309Y-85907619D01*
X130638690Y-86002857D01*
X130638690Y-86098095D01*
X130686309Y-86193333D01*
X130733928Y-86240952D01*
X130829166Y-86288571D01*
X131162500Y-86288571D01*
X130162500Y-86431428D02*
X129400595Y-86431428D01*
X129781547Y-86812380D02*
X129781547Y-86050476D01*
X128210119Y-85764761D02*
X129067261Y-87050476D01*
X127352976Y-86812380D02*
X127924404Y-86812380D01*
X127638690Y-86812380D02*
X127638690Y-85812380D01*
X127733928Y-85955238D01*
X127829166Y-86050476D01*
X127924404Y-86098095D01*
X131162500Y-91797142D02*
X131210119Y-91844761D01*
X131352976Y-91892380D01*
X131448214Y-91892380D01*
X131591071Y-91844761D01*
X131686309Y-91749523D01*
X131733928Y-91654285D01*
X131781547Y-91463809D01*
X131781547Y-91320952D01*
X131733928Y-91130476D01*
X131686309Y-91035238D01*
X131591071Y-90940000D01*
X131448214Y-90892380D01*
X131352976Y-90892380D01*
X131210119Y-90940000D01*
X131162500Y-90987619D01*
X130257738Y-91892380D02*
X130733928Y-91892380D01*
X130733928Y-90892380D01*
X129924404Y-91892380D02*
X129924404Y-90892380D01*
X129352976Y-91892380D02*
X129781547Y-91320952D01*
X129352976Y-90892380D02*
X129924404Y-91463809D01*
X128210119Y-90844761D02*
X129067261Y-92130476D01*
X127972023Y-90892380D02*
X127352976Y-90892380D01*
X127686309Y-91273333D01*
X127543452Y-91273333D01*
X127448214Y-91320952D01*
X127400595Y-91368571D01*
X127352976Y-91463809D01*
X127352976Y-91701904D01*
X127400595Y-91797142D01*
X127448214Y-91844761D01*
X127543452Y-91892380D01*
X127829166Y-91892380D01*
X127924404Y-91844761D01*
X127972023Y-91797142D01*
X133162500Y-88352380D02*
X133162500Y-89161904D01*
X133114880Y-89257142D01*
X133067261Y-89304761D01*
X132972023Y-89352380D01*
X132781547Y-89352380D01*
X132686309Y-89304761D01*
X132638690Y-89257142D01*
X132591071Y-89161904D01*
X132591071Y-88352380D01*
X132162500Y-89304761D02*
X132019642Y-89352380D01*
X131781547Y-89352380D01*
X131686309Y-89304761D01*
X131638690Y-89257142D01*
X131591071Y-89161904D01*
X131591071Y-89066666D01*
X131638690Y-88971428D01*
X131686309Y-88923809D01*
X131781547Y-88876190D01*
X131972023Y-88828571D01*
X132067261Y-88780952D01*
X132114880Y-88733333D01*
X132162500Y-88638095D01*
X132162500Y-88542857D01*
X132114880Y-88447619D01*
X132067261Y-88400000D01*
X131972023Y-88352380D01*
X131733928Y-88352380D01*
X131591071Y-88400000D01*
X130829166Y-88828571D02*
X130686309Y-88876190D01*
X130638690Y-88923809D01*
X130591071Y-89019047D01*
X130591071Y-89161904D01*
X130638690Y-89257142D01*
X130686309Y-89304761D01*
X130781547Y-89352380D01*
X131162500Y-89352380D01*
X131162500Y-88352380D01*
X130829166Y-88352380D01*
X130733928Y-88400000D01*
X130686309Y-88447619D01*
X130638690Y-88542857D01*
X130638690Y-88638095D01*
X130686309Y-88733333D01*
X130733928Y-88780952D01*
X130829166Y-88828571D01*
X131162500Y-88828571D01*
X130162500Y-88971428D02*
X129400595Y-88971428D01*
X128210119Y-88304761D02*
X129067261Y-89590476D01*
X127924404Y-88447619D02*
X127876785Y-88400000D01*
X127781547Y-88352380D01*
X127543452Y-88352380D01*
X127448214Y-88400000D01*
X127400595Y-88447619D01*
X127352976Y-88542857D01*
X127352976Y-88638095D01*
X127400595Y-88780952D01*
X127972023Y-89352380D01*
X127352976Y-89352380D01*
X127448214Y-93765714D02*
X127448214Y-94432380D01*
X127686309Y-93384761D02*
X127924404Y-94099047D01*
X127305357Y-94099047D01*
X127448214Y-98512380D02*
X127638690Y-98512380D01*
X127733928Y-98560000D01*
X127781547Y-98607619D01*
X127876785Y-98750476D01*
X127924404Y-98940952D01*
X127924404Y-99321904D01*
X127876785Y-99417142D01*
X127829166Y-99464761D01*
X127733928Y-99512380D01*
X127543452Y-99512380D01*
X127448214Y-99464761D01*
X127400595Y-99417142D01*
X127352976Y-99321904D01*
X127352976Y-99083809D01*
X127400595Y-98988571D01*
X127448214Y-98940952D01*
X127543452Y-98893333D01*
X127733928Y-98893333D01*
X127829166Y-98940952D01*
X127876785Y-98988571D01*
X127924404Y-99083809D01*
X127972023Y-101052380D02*
X127305357Y-101052380D01*
X127733928Y-102052380D01*
X127829166Y-107132380D02*
X127638690Y-107132380D01*
X127543452Y-107084761D01*
X127495833Y-107037142D01*
X127400595Y-106894285D01*
X127352976Y-106703809D01*
X127352976Y-106322857D01*
X127400595Y-106227619D01*
X127448214Y-106180000D01*
X127543452Y-106132380D01*
X127733928Y-106132380D01*
X127829166Y-106180000D01*
X127876785Y-106227619D01*
X127924404Y-106322857D01*
X127924404Y-106560952D01*
X127876785Y-106656190D01*
X127829166Y-106703809D01*
X127733928Y-106751428D01*
X127543452Y-106751428D01*
X127448214Y-106703809D01*
X127400595Y-106656190D01*
X127352976Y-106560952D01*
X128305357Y-109672380D02*
X128876785Y-109672380D01*
X128591071Y-109672380D02*
X128591071Y-108672380D01*
X128686309Y-108815238D01*
X128781547Y-108910476D01*
X128876785Y-108958095D01*
X127686309Y-108672380D02*
X127591071Y-108672380D01*
X127495833Y-108720000D01*
X127448214Y-108767619D01*
X127400595Y-108862857D01*
X127352976Y-109053333D01*
X127352976Y-109291428D01*
X127400595Y-109481904D01*
X127448214Y-109577142D01*
X127495833Y-109624761D01*
X127591071Y-109672380D01*
X127686309Y-109672380D01*
X127781547Y-109624761D01*
X127829166Y-109577142D01*
X127876785Y-109481904D01*
X127924404Y-109291428D01*
X127924404Y-109053333D01*
X127876785Y-108862857D01*
X127829166Y-108767619D01*
X127781547Y-108720000D01*
X127686309Y-108672380D01*
X128305357Y-112212380D02*
X128876785Y-112212380D01*
X128591071Y-112212380D02*
X128591071Y-111212380D01*
X128686309Y-111355238D01*
X128781547Y-111450476D01*
X128876785Y-111498095D01*
X127352976Y-112212380D02*
X127924404Y-112212380D01*
X127638690Y-112212380D02*
X127638690Y-111212380D01*
X127733928Y-111355238D01*
X127829166Y-111450476D01*
X127924404Y-111498095D01*
X128305357Y-114752380D02*
X128876785Y-114752380D01*
X128591071Y-114752380D02*
X128591071Y-113752380D01*
X128686309Y-113895238D01*
X128781547Y-113990476D01*
X128876785Y-114038095D01*
X127924404Y-113847619D02*
X127876785Y-113800000D01*
X127781547Y-113752380D01*
X127543452Y-113752380D01*
X127448214Y-113800000D01*
X127400595Y-113847619D01*
X127352976Y-113942857D01*
X127352976Y-114038095D01*
X127400595Y-114180952D01*
X127972023Y-114752380D01*
X127352976Y-114752380D01*
X138775595Y-107132380D02*
X139347023Y-107132380D01*
X139061309Y-107132380D02*
X139061309Y-106132380D01*
X139156547Y-106275238D01*
X139251785Y-106370476D01*
X139347023Y-106418095D01*
X138204166Y-106560952D02*
X138299404Y-106513333D01*
X138347023Y-106465714D01*
X138394642Y-106370476D01*
X138394642Y-106322857D01*
X138347023Y-106227619D01*
X138299404Y-106180000D01*
X138204166Y-106132380D01*
X138013690Y-106132380D01*
X137918452Y-106180000D01*
X137870833Y-106227619D01*
X137823214Y-106322857D01*
X137823214Y-106370476D01*
X137870833Y-106465714D01*
X137918452Y-106513333D01*
X138013690Y-106560952D01*
X138204166Y-106560952D01*
X138299404Y-106608571D01*
X138347023Y-106656190D01*
X138394642Y-106751428D01*
X138394642Y-106941904D01*
X138347023Y-107037142D01*
X138299404Y-107084761D01*
X138204166Y-107132380D01*
X138013690Y-107132380D01*
X137918452Y-107084761D01*
X137870833Y-107037142D01*
X137823214Y-106941904D01*
X137823214Y-106751428D01*
X137870833Y-106656190D01*
X137918452Y-106608571D01*
X138013690Y-106560952D01*
X139347023Y-101147619D02*
X139299404Y-101100000D01*
X139204166Y-101052380D01*
X138966071Y-101052380D01*
X138870833Y-101100000D01*
X138823214Y-101147619D01*
X138775595Y-101242857D01*
X138775595Y-101338095D01*
X138823214Y-101480952D01*
X139394642Y-102052380D01*
X138775595Y-102052380D01*
X138156547Y-101052380D02*
X138061309Y-101052380D01*
X137966071Y-101100000D01*
X137918452Y-101147619D01*
X137870833Y-101242857D01*
X137823214Y-101433333D01*
X137823214Y-101671428D01*
X137870833Y-101861904D01*
X137918452Y-101957142D01*
X137966071Y-102004761D01*
X138061309Y-102052380D01*
X138156547Y-102052380D01*
X138251785Y-102004761D01*
X138299404Y-101957142D01*
X138347023Y-101861904D01*
X138394642Y-101671428D01*
X138394642Y-101433333D01*
X138347023Y-101242857D01*
X138299404Y-101147619D01*
X138251785Y-101100000D01*
X138156547Y-101052380D01*
X128305357Y-117292380D02*
X128876785Y-117292380D01*
X128591071Y-117292380D02*
X128591071Y-116292380D01*
X128686309Y-116435238D01*
X128781547Y-116530476D01*
X128876785Y-116578095D01*
X127972023Y-116292380D02*
X127352976Y-116292380D01*
X127686309Y-116673333D01*
X127543452Y-116673333D01*
X127448214Y-116720952D01*
X127400595Y-116768571D01*
X127352976Y-116863809D01*
X127352976Y-117101904D01*
X127400595Y-117197142D01*
X127448214Y-117244761D01*
X127543452Y-117292380D01*
X127829166Y-117292380D01*
X127924404Y-117244761D01*
X127972023Y-117197142D01*
X138775595Y-117292380D02*
X139347023Y-117292380D01*
X139061309Y-117292380D02*
X139061309Y-116292380D01*
X139156547Y-116435238D01*
X139251785Y-116530476D01*
X139347023Y-116578095D01*
X137918452Y-116625714D02*
X137918452Y-117292380D01*
X138156547Y-116244761D02*
X138394642Y-116959047D01*
X137775595Y-116959047D01*
X136680357Y-116244761D02*
X137537500Y-117530476D01*
X136394642Y-117244761D02*
X136251785Y-117292380D01*
X136013690Y-117292380D01*
X135918452Y-117244761D01*
X135870833Y-117197142D01*
X135823214Y-117101904D01*
X135823214Y-117006666D01*
X135870833Y-116911428D01*
X135918452Y-116863809D01*
X136013690Y-116816190D01*
X136204166Y-116768571D01*
X136299404Y-116720952D01*
X136347023Y-116673333D01*
X136394642Y-116578095D01*
X136394642Y-116482857D01*
X136347023Y-116387619D01*
X136299404Y-116340000D01*
X136204166Y-116292380D01*
X135966071Y-116292380D01*
X135823214Y-116340000D01*
X135394642Y-117292380D02*
X135394642Y-116292380D01*
X135156547Y-116292380D01*
X135013690Y-116340000D01*
X134918452Y-116435238D01*
X134870833Y-116530476D01*
X134823214Y-116720952D01*
X134823214Y-116863809D01*
X134870833Y-117054285D01*
X134918452Y-117149523D01*
X135013690Y-117244761D01*
X135156547Y-117292380D01*
X135394642Y-117292380D01*
X134204166Y-116292380D02*
X134013690Y-116292380D01*
X133918452Y-116340000D01*
X133823214Y-116435238D01*
X133775595Y-116625714D01*
X133775595Y-116959047D01*
X133823214Y-117149523D01*
X133918452Y-117244761D01*
X134013690Y-117292380D01*
X134204166Y-117292380D01*
X134299404Y-117244761D01*
X134394642Y-117149523D01*
X134442261Y-116959047D01*
X134442261Y-116625714D01*
X134394642Y-116435238D01*
X134299404Y-116340000D01*
X134204166Y-116292380D01*
X138775595Y-114752380D02*
X139347023Y-114752380D01*
X139061309Y-114752380D02*
X139061309Y-113752380D01*
X139156547Y-113895238D01*
X139251785Y-113990476D01*
X139347023Y-114038095D01*
X137870833Y-113752380D02*
X138347023Y-113752380D01*
X138394642Y-114228571D01*
X138347023Y-114180952D01*
X138251785Y-114133333D01*
X138013690Y-114133333D01*
X137918452Y-114180952D01*
X137870833Y-114228571D01*
X137823214Y-114323809D01*
X137823214Y-114561904D01*
X137870833Y-114657142D01*
X137918452Y-114704761D01*
X138013690Y-114752380D01*
X138251785Y-114752380D01*
X138347023Y-114704761D01*
X138394642Y-114657142D01*
X136680357Y-113704761D02*
X137537500Y-114990476D01*
X136394642Y-114704761D02*
X136251785Y-114752380D01*
X136013690Y-114752380D01*
X135918452Y-114704761D01*
X135870833Y-114657142D01*
X135823214Y-114561904D01*
X135823214Y-114466666D01*
X135870833Y-114371428D01*
X135918452Y-114323809D01*
X136013690Y-114276190D01*
X136204166Y-114228571D01*
X136299404Y-114180952D01*
X136347023Y-114133333D01*
X136394642Y-114038095D01*
X136394642Y-113942857D01*
X136347023Y-113847619D01*
X136299404Y-113800000D01*
X136204166Y-113752380D01*
X135966071Y-113752380D01*
X135823214Y-113800000D01*
X135394642Y-114752380D02*
X135394642Y-113752380D01*
X135156547Y-113752380D01*
X135013690Y-113800000D01*
X134918452Y-113895238D01*
X134870833Y-113990476D01*
X134823214Y-114180952D01*
X134823214Y-114323809D01*
X134870833Y-114514285D01*
X134918452Y-114609523D01*
X135013690Y-114704761D01*
X135156547Y-114752380D01*
X135394642Y-114752380D01*
X134394642Y-114752380D02*
X134394642Y-113752380D01*
X138775595Y-109672380D02*
X139347023Y-109672380D01*
X139061309Y-109672380D02*
X139061309Y-108672380D01*
X139156547Y-108815238D01*
X139251785Y-108910476D01*
X139347023Y-108958095D01*
X138442261Y-108672380D02*
X137775595Y-108672380D01*
X138204166Y-109672380D01*
X136680357Y-108624761D02*
X137537500Y-109910476D01*
X136394642Y-109624761D02*
X136251785Y-109672380D01*
X136013690Y-109672380D01*
X135918452Y-109624761D01*
X135870833Y-109577142D01*
X135823214Y-109481904D01*
X135823214Y-109386666D01*
X135870833Y-109291428D01*
X135918452Y-109243809D01*
X136013690Y-109196190D01*
X136204166Y-109148571D01*
X136299404Y-109100952D01*
X136347023Y-109053333D01*
X136394642Y-108958095D01*
X136394642Y-108862857D01*
X136347023Y-108767619D01*
X136299404Y-108720000D01*
X136204166Y-108672380D01*
X135966071Y-108672380D01*
X135823214Y-108720000D01*
X135442261Y-109624761D02*
X135299404Y-109672380D01*
X135061309Y-109672380D01*
X134966071Y-109624761D01*
X134918452Y-109577142D01*
X134870833Y-109481904D01*
X134870833Y-109386666D01*
X134918452Y-109291428D01*
X134966071Y-109243809D01*
X135061309Y-109196190D01*
X135251785Y-109148571D01*
X135347023Y-109100952D01*
X135394642Y-109053333D01*
X135442261Y-108958095D01*
X135442261Y-108862857D01*
X135394642Y-108767619D01*
X135347023Y-108720000D01*
X135251785Y-108672380D01*
X135013690Y-108672380D01*
X134870833Y-108720000D01*
X139347023Y-98607619D02*
X139299404Y-98560000D01*
X139204166Y-98512380D01*
X138966071Y-98512380D01*
X138870833Y-98560000D01*
X138823214Y-98607619D01*
X138775595Y-98702857D01*
X138775595Y-98798095D01*
X138823214Y-98940952D01*
X139394642Y-99512380D01*
X138775595Y-99512380D01*
X137823214Y-99512380D02*
X138394642Y-99512380D01*
X138108928Y-99512380D02*
X138108928Y-98512380D01*
X138204166Y-98655238D01*
X138299404Y-98750476D01*
X138394642Y-98798095D01*
X139347023Y-93527619D02*
X139299404Y-93480000D01*
X139204166Y-93432380D01*
X138966071Y-93432380D01*
X138870833Y-93480000D01*
X138823214Y-93527619D01*
X138775595Y-93622857D01*
X138775595Y-93718095D01*
X138823214Y-93860952D01*
X139394642Y-94432380D01*
X138775595Y-94432380D01*
X138442261Y-93432380D02*
X137823214Y-93432380D01*
X138156547Y-93813333D01*
X138013690Y-93813333D01*
X137918452Y-93860952D01*
X137870833Y-93908571D01*
X137823214Y-94003809D01*
X137823214Y-94241904D01*
X137870833Y-94337142D01*
X137918452Y-94384761D01*
X138013690Y-94432380D01*
X138299404Y-94432380D01*
X138394642Y-94384761D01*
X138442261Y-94337142D01*
X139347023Y-90987619D02*
X139299404Y-90940000D01*
X139204166Y-90892380D01*
X138966071Y-90892380D01*
X138870833Y-90940000D01*
X138823214Y-90987619D01*
X138775595Y-91082857D01*
X138775595Y-91178095D01*
X138823214Y-91320952D01*
X139394642Y-91892380D01*
X138775595Y-91892380D01*
X137918452Y-91225714D02*
X137918452Y-91892380D01*
X138156547Y-90844761D02*
X138394642Y-91559047D01*
X137775595Y-91559047D01*
X138775595Y-89352380D02*
X139347023Y-89352380D01*
X139061309Y-89352380D02*
X139061309Y-88352380D01*
X139156547Y-88495238D01*
X139251785Y-88590476D01*
X139347023Y-88638095D01*
X138347023Y-89257142D02*
X138299404Y-89304761D01*
X138347023Y-89352380D01*
X138394642Y-89304761D01*
X138347023Y-89257142D01*
X138347023Y-89352380D01*
X137918452Y-88447619D02*
X137870833Y-88400000D01*
X137775595Y-88352380D01*
X137537500Y-88352380D01*
X137442261Y-88400000D01*
X137394642Y-88447619D01*
X137347023Y-88542857D01*
X137347023Y-88638095D01*
X137394642Y-88780952D01*
X137966071Y-89352380D01*
X137347023Y-89352380D01*
X137013690Y-88685714D02*
X136775595Y-89352380D01*
X136537500Y-88685714D01*
X139394642Y-85812380D02*
X138775595Y-85812380D01*
X139108928Y-86193333D01*
X138966071Y-86193333D01*
X138870833Y-86240952D01*
X138823214Y-86288571D01*
X138775595Y-86383809D01*
X138775595Y-86621904D01*
X138823214Y-86717142D01*
X138870833Y-86764761D01*
X138966071Y-86812380D01*
X139251785Y-86812380D01*
X139347023Y-86764761D01*
X139394642Y-86717142D01*
X138347023Y-86717142D02*
X138299404Y-86764761D01*
X138347023Y-86812380D01*
X138394642Y-86764761D01*
X138347023Y-86717142D01*
X138347023Y-86812380D01*
X137966071Y-85812380D02*
X137347023Y-85812380D01*
X137680357Y-86193333D01*
X137537500Y-86193333D01*
X137442261Y-86240952D01*
X137394642Y-86288571D01*
X137347023Y-86383809D01*
X137347023Y-86621904D01*
X137394642Y-86717142D01*
X137442261Y-86764761D01*
X137537500Y-86812380D01*
X137823214Y-86812380D01*
X137918452Y-86764761D01*
X137966071Y-86717142D01*
X137013690Y-86145714D02*
X136775595Y-86812380D01*
X136537500Y-86145714D01*
X127400595Y-95972380D02*
X127876785Y-95972380D01*
X127924404Y-96448571D01*
X127876785Y-96400952D01*
X127781547Y-96353333D01*
X127543452Y-96353333D01*
X127448214Y-96400952D01*
X127400595Y-96448571D01*
X127352976Y-96543809D01*
X127352976Y-96781904D01*
X127400595Y-96877142D01*
X127448214Y-96924761D01*
X127543452Y-96972380D01*
X127781547Y-96972380D01*
X127876785Y-96924761D01*
X127924404Y-96877142D01*
X127733928Y-104020952D02*
X127829166Y-103973333D01*
X127876785Y-103925714D01*
X127924404Y-103830476D01*
X127924404Y-103782857D01*
X127876785Y-103687619D01*
X127829166Y-103640000D01*
X127733928Y-103592380D01*
X127543452Y-103592380D01*
X127448214Y-103640000D01*
X127400595Y-103687619D01*
X127352976Y-103782857D01*
X127352976Y-103830476D01*
X127400595Y-103925714D01*
X127448214Y-103973333D01*
X127543452Y-104020952D01*
X127733928Y-104020952D01*
X127829166Y-104068571D01*
X127876785Y-104116190D01*
X127924404Y-104211428D01*
X127924404Y-104401904D01*
X127876785Y-104497142D01*
X127829166Y-104544761D01*
X127733928Y-104592380D01*
X127543452Y-104592380D01*
X127448214Y-104544761D01*
X127400595Y-104497142D01*
X127352976Y-104401904D01*
X127352976Y-104211428D01*
X127400595Y-104116190D01*
X127448214Y-104068571D01*
X127543452Y-104020952D01*
X138775595Y-112212380D02*
X139347023Y-112212380D01*
X139061309Y-112212380D02*
X139061309Y-111212380D01*
X139156547Y-111355238D01*
X139251785Y-111450476D01*
X139347023Y-111498095D01*
X137918452Y-111212380D02*
X138108928Y-111212380D01*
X138204166Y-111260000D01*
X138251785Y-111307619D01*
X138347023Y-111450476D01*
X138394642Y-111640952D01*
X138394642Y-112021904D01*
X138347023Y-112117142D01*
X138299404Y-112164761D01*
X138204166Y-112212380D01*
X138013690Y-112212380D01*
X137918452Y-112164761D01*
X137870833Y-112117142D01*
X137823214Y-112021904D01*
X137823214Y-111783809D01*
X137870833Y-111688571D01*
X137918452Y-111640952D01*
X138013690Y-111593333D01*
X138204166Y-111593333D01*
X138299404Y-111640952D01*
X138347023Y-111688571D01*
X138394642Y-111783809D01*
X136680357Y-111164761D02*
X137537500Y-112450476D01*
X136394642Y-112164761D02*
X136251785Y-112212380D01*
X136013690Y-112212380D01*
X135918452Y-112164761D01*
X135870833Y-112117142D01*
X135823214Y-112021904D01*
X135823214Y-111926666D01*
X135870833Y-111831428D01*
X135918452Y-111783809D01*
X136013690Y-111736190D01*
X136204166Y-111688571D01*
X136299404Y-111640952D01*
X136347023Y-111593333D01*
X136394642Y-111498095D01*
X136394642Y-111402857D01*
X136347023Y-111307619D01*
X136299404Y-111260000D01*
X136204166Y-111212380D01*
X135966071Y-111212380D01*
X135823214Y-111260000D01*
X134823214Y-112117142D02*
X134870833Y-112164761D01*
X135013690Y-112212380D01*
X135108928Y-112212380D01*
X135251785Y-112164761D01*
X135347023Y-112069523D01*
X135394642Y-111974285D01*
X135442261Y-111783809D01*
X135442261Y-111640952D01*
X135394642Y-111450476D01*
X135347023Y-111355238D01*
X135251785Y-111260000D01*
X135108928Y-111212380D01*
X135013690Y-111212380D01*
X134870833Y-111260000D01*
X134823214Y-111307619D01*
X134394642Y-112212380D02*
X134394642Y-111212380D01*
X133823214Y-112212380D02*
X134251785Y-111640952D01*
X133823214Y-111212380D02*
X134394642Y-111783809D01*
X138823214Y-83272380D02*
X139299404Y-83272380D01*
X139347023Y-83748571D01*
X139299404Y-83700952D01*
X139204166Y-83653333D01*
X138966071Y-83653333D01*
X138870833Y-83700952D01*
X138823214Y-83748571D01*
X138775595Y-83843809D01*
X138775595Y-84081904D01*
X138823214Y-84177142D01*
X138870833Y-84224761D01*
X138966071Y-84272380D01*
X139204166Y-84272380D01*
X139299404Y-84224761D01*
X139347023Y-84177142D01*
X138442261Y-83605714D02*
X138204166Y-84272380D01*
X137966071Y-83605714D01*
X138775595Y-104592380D02*
X139347023Y-104592380D01*
X139061309Y-104592380D02*
X139061309Y-103592380D01*
X139156547Y-103735238D01*
X139251785Y-103830476D01*
X139347023Y-103878095D01*
X138299404Y-104592380D02*
X138108928Y-104592380D01*
X138013690Y-104544761D01*
X137966071Y-104497142D01*
X137870833Y-104354285D01*
X137823214Y-104163809D01*
X137823214Y-103782857D01*
X137870833Y-103687619D01*
X137918452Y-103640000D01*
X138013690Y-103592380D01*
X138204166Y-103592380D01*
X138299404Y-103640000D01*
X138347023Y-103687619D01*
X138394642Y-103782857D01*
X138394642Y-104020952D01*
X138347023Y-104116190D01*
X138299404Y-104163809D01*
X138204166Y-104211428D01*
X138013690Y-104211428D01*
X137918452Y-104163809D01*
X137870833Y-104116190D01*
X137823214Y-104020952D01*
X139347023Y-96067619D02*
X139299404Y-96020000D01*
X139204166Y-95972380D01*
X138966071Y-95972380D01*
X138870833Y-96020000D01*
X138823214Y-96067619D01*
X138775595Y-96162857D01*
X138775595Y-96258095D01*
X138823214Y-96400952D01*
X139394642Y-96972380D01*
X138775595Y-96972380D01*
X138394642Y-96067619D02*
X138347023Y-96020000D01*
X138251785Y-95972380D01*
X138013690Y-95972380D01*
X137918452Y-96020000D01*
X137870833Y-96067619D01*
X137823214Y-96162857D01*
X137823214Y-96258095D01*
X137870833Y-96400952D01*
X138442261Y-96972380D01*
X137823214Y-96972380D01*
M02*
